<svg width="295" height="24" viewBox="0 0 295 24" fill="none" xmlns="http://www.w3.org/2000/svg">
<path d="M15.968 19.032H7.584L6.24 23H0.512L8.64 0.535999H14.976L23.104 23H17.312L15.968 19.032ZM14.56 14.808L11.776 6.584L9.024 14.808H14.56ZM42.6978 7.768C42.6978 9.06933 42.3991 10.264 41.8018 11.352C41.2044 12.4187 40.2871 13.2827 39.0498 13.944C37.8124 14.6053 36.2764 14.936 34.4418 14.936H31.0498V23H25.5778V0.535999H34.4418C36.2338 0.535999 37.7484 0.845332 38.9858 1.464C40.2231 2.08267 41.1511 2.936 41.7698 4.024C42.3884 5.112 42.6978 6.36 42.6978 7.768ZM34.0258 10.584C35.0711 10.584 35.8498 10.3387 36.3618 9.848C36.8738 9.35733 37.1298 8.664 37.1298 7.768C37.1298 6.872 36.8738 6.17867 36.3618 5.688C35.8498 5.19733 35.0711 4.952 34.0258 4.952H31.0498V10.584H34.0258ZM56.1705 23.224C54.0585 23.224 52.1172 22.7333 50.3465 21.752C48.5972 20.7707 47.1998 19.4053 46.1545 17.656C45.1305 15.8853 44.6185 13.9013 44.6185 11.704C44.6185 9.50667 45.1305 7.53333 46.1545 5.784C47.1998 4.03467 48.5972 2.66933 50.3465 1.688C52.1172 0.706666 54.0585 0.216 56.1705 0.216C58.2825 0.216 60.2132 0.706666 61.9625 1.688C63.7332 2.66933 65.1198 4.03467 66.1225 5.784C67.1465 7.53333 67.6585 9.50667 67.6585 11.704C67.6585 13.9013 67.1465 15.8853 66.1225 17.656C65.0985 19.4053 63.7118 20.7707 61.9625 21.752C60.2132 22.7333 58.2825 23.224 56.1705 23.224ZM56.1705 18.232C57.9625 18.232 59.3918 17.6347 60.4585 16.44C61.5465 15.2453 62.0905 13.6667 62.0905 11.704C62.0905 9.72 61.5465 8.14133 60.4585 6.968C59.3918 5.77333 57.9625 5.176 56.1705 5.176C54.3572 5.176 52.9065 5.76267 51.8185 6.936C50.7518 8.10933 50.2185 9.69867 50.2185 11.704C50.2185 13.688 50.7518 15.2773 51.8185 16.472C52.9065 17.6453 54.3572 18.232 56.1705 18.232ZM86.8628 0.535999V4.92H80.9108V23H75.4388V4.92H69.4868V0.535999H86.8628ZM95.081 4.92V9.464H102.409V13.688H95.081V18.616H103.369V23H89.609V0.535999H103.369V4.92H95.081ZM119.946 23L112.394 13.08V23H106.922V0.535999H112.394V10.392L119.882 0.535999H126.314L117.61 11.544L126.634 23H119.946ZM135.087 11.736C135.087 9.51733 135.567 7.544 136.527 5.816C137.487 4.06667 138.821 2.712 140.527 1.752C142.255 0.770665 144.207 0.279999 146.383 0.279999C149.05 0.279999 151.333 0.983999 153.231 2.392C155.13 3.8 156.399 5.72 157.039 8.152H151.023C150.575 7.21333 149.935 6.49867 149.103 6.008C148.293 5.51733 147.365 5.272 146.319 5.272C144.634 5.272 143.269 5.85867 142.223 7.032C141.178 8.20533 140.655 9.77333 140.655 11.736C140.655 13.6987 141.178 15.2667 142.223 16.44C143.269 17.6133 144.634 18.2 146.319 18.2C147.365 18.2 148.293 17.9547 149.103 17.464C149.935 16.9733 150.575 16.2587 151.023 15.32H157.039C156.399 17.752 155.13 19.672 153.231 21.08C151.333 22.4667 149.05 23.16 146.383 23.16C144.207 23.16 142.255 22.68 140.527 21.72C138.821 20.7387 137.487 19.384 136.527 17.656C135.567 15.928 135.087 13.9547 135.087 11.736ZM165.862 4.92V9.464H173.19V13.688H165.862V18.616H174.15V23H160.39V0.535999H174.15V4.92H165.862ZM203.143 0.535999V23H197.671V9.528L192.647 23H188.231L183.175 9.496V23H177.703V0.535999H184.167L190.471 16.088L196.711 0.535999H203.143ZM224.198 7.768C224.198 9.06933 223.899 10.264 223.302 11.352C222.704 12.4187 221.787 13.2827 220.55 13.944C219.312 14.6053 217.776 14.936 215.942 14.936H212.55V23H207.078V0.535999H215.942C217.734 0.535999 219.248 0.845332 220.486 1.464C221.723 2.08267 222.651 2.936 223.27 4.024C223.888 5.112 224.198 6.36 224.198 7.768ZM215.526 10.584C216.571 10.584 217.35 10.3387 217.862 9.848C218.374 9.35733 218.63 8.664 218.63 7.768C218.63 6.872 218.374 6.17867 217.862 5.688C217.35 5.19733 216.571 4.952 215.526 4.952H212.55V10.584H215.526ZM241.031 19.032H232.647L231.303 23H225.575L233.703 0.535999H240.039L248.167 23H242.375L241.031 19.032ZM239.623 14.808L236.839 6.584L234.087 14.808H239.623ZM263.664 23L256.112 13.08V23H250.64V0.535999H256.112V10.392L263.6 0.535999H270.032L261.328 11.544L270.352 23H263.664ZM286.937 19.032H278.553L277.209 23H271.481L279.609 0.535999H285.945L294.073 23H288.281L286.937 19.032ZM285.529 14.808L282.745 6.584L279.993 14.808H285.529Z" fill="#EBFFFB"/>
</svg>
