<svg width="258" height="94" viewBox="0 0 258 94" fill="none" xmlns="http://www.w3.org/2000/svg">
<path d="M23.952 29.048H11.376L9.36 35H0.768L12.96 1.304H22.464L34.656 35H25.968L23.952 29.048ZM21.84 22.712L17.664 10.376L13.536 22.712H21.84ZM66.9266 12.152C66.9266 14.104 66.4786 15.896 65.5826 17.528C64.6866 19.128 63.3106 20.424 61.4546 21.416C59.5986 22.408 57.2946 22.904 54.5426 22.904H49.4546V35H41.2466V1.304H54.5426C57.2306 1.304 59.5026 1.768 61.3586 2.696C63.2146 3.624 64.6066 4.904 65.5346 6.536C66.4626 8.168 66.9266 10.04 66.9266 12.152ZM53.9186 16.376C55.4866 16.376 56.6546 16.008 57.4226 15.272C58.1906 14.536 58.5746 13.496 58.5746 12.152C58.5746 10.808 58.1906 9.768 57.4226 9.032C56.6546 8.296 55.4866 7.928 53.9186 7.928H49.4546V16.376H53.9186ZM90.0158 35.336C86.8478 35.336 83.9358 34.6 81.2798 33.128C78.6558 31.656 76.5598 29.608 74.9918 26.984C73.4558 24.328 72.6878 21.352 72.6878 18.056C72.6878 14.76 73.4558 11.8 74.9918 9.176C76.5598 6.552 78.6558 4.504 81.2798 3.032C83.9358 1.56 86.8478 0.823999 90.0158 0.823999C93.1838 0.823999 96.0798 1.56 98.7038 3.032C101.36 4.504 103.44 6.552 104.944 9.176C106.48 11.8 107.248 14.76 107.248 18.056C107.248 21.352 106.48 24.328 104.944 26.984C103.408 29.608 101.328 31.656 98.7038 33.128C96.0798 34.6 93.1838 35.336 90.0158 35.336ZM90.0158 27.848C92.7038 27.848 94.8478 26.952 96.4478 25.16C98.0798 23.368 98.8958 21 98.8958 18.056C98.8958 15.08 98.0798 12.712 96.4478 10.952C94.8478 9.16 92.7038 8.264 90.0158 8.264C87.2958 8.264 85.1198 9.144 83.4878 10.904C81.8878 12.664 81.0878 15.048 81.0878 18.056C81.0878 21.032 81.8878 23.416 83.4878 25.208C85.1198 26.968 87.2958 27.848 90.0158 27.848ZM138.934 1.304V7.88H130.006V35H121.798V7.88H112.87V1.304H138.934ZM154.142 7.88V14.696H165.134V21.032H154.142V28.424H166.574V35H145.934V1.304H166.574V7.88H154.142ZM194.318 35L182.99 20.12V35H174.782V1.304H182.99V16.088L194.222 1.304H203.87L190.814 17.816L204.35 35H194.318ZM1.584 76.104C1.584 72.776 2.304 69.816 3.744 67.224C5.184 64.6 7.184 62.568 9.744 61.128C12.336 59.656 15.264 58.92 18.528 58.92C22.528 58.92 25.952 59.976 28.8 62.088C31.648 64.2 33.552 67.08 34.512 70.728H25.488C24.816 69.32 23.856 68.248 22.608 67.512C21.392 66.776 20 66.408 18.432 66.408C15.904 66.408 13.856 67.288 12.288 69.048C10.72 70.808 9.936 73.16 9.936 76.104C9.936 79.048 10.72 81.4 12.288 83.16C13.856 84.92 15.904 85.8 18.432 85.8C20 85.8 21.392 85.432 22.608 84.696C23.856 83.96 24.816 82.888 25.488 81.48H34.512C33.552 85.128 31.648 88.008 28.8 90.12C25.952 92.2 22.528 93.24 18.528 93.24C15.264 93.24 12.336 92.52 9.744 91.08C7.184 89.608 5.184 87.576 3.744 84.984C2.304 82.392 1.584 79.432 1.584 76.104ZM50.6265 65.88V72.696H61.6185V79.032H50.6265V86.424H63.0585V93H42.4185V59.304H63.0585V65.88H50.6265ZM109.427 59.304V93H101.219V72.792L93.6833 93H87.0593L79.4753 72.744V93H71.2673V59.304H80.9633L90.4193 82.632L99.7793 59.304H109.427ZM143.89 70.152C143.89 72.104 143.442 73.896 142.546 75.528C141.65 77.128 140.274 78.424 138.418 79.416C136.562 80.408 134.258 80.904 131.506 80.904H126.418V93H118.21V59.304H131.506C134.194 59.304 136.466 59.768 138.322 60.696C140.178 61.624 141.57 62.904 142.498 64.536C143.426 66.168 143.89 68.04 143.89 70.152ZM130.882 74.376C132.45 74.376 133.618 74.008 134.386 73.272C135.154 72.536 135.538 71.496 135.538 70.152C135.538 68.808 135.154 67.768 134.386 67.032C133.618 66.296 132.45 65.928 130.882 65.928H126.418V74.376H130.882ZM172.019 87.048H159.443L157.427 93H148.835L161.027 59.304H170.531L182.723 93H174.035L172.019 87.048ZM169.907 80.712L165.731 68.376L161.603 80.712H169.907ZM208.849 93L197.521 78.12V93H189.313V59.304H197.521V74.088L208.753 59.304H218.401L205.345 75.816L218.881 93H208.849ZM246.638 87.048H234.062L232.046 93H223.454L235.646 59.304H245.15L257.342 93H248.654L246.638 87.048ZM244.526 80.712L240.35 68.376L236.222 80.712H244.526Z" fill="#EBFFFB"/>
</svg>
