<svg xmlns="http://www.w3.org/2000/svg" xmlns:xlink="http://www.w3.org/1999/xlink" width="500" zoomAndPan="magnify" viewBox="0 0 375 374.999991" height="500" preserveAspectRatio="xMidYMid meet" version="1.0"><defs><clipPath id="68dc0995c9"><path d="M 135.269531 118.972656 L 189.421875 118.972656 L 189.421875 173.183594 L 135.269531 173.183594 Z M 135.269531 118.972656 " clip-rule="nonzero"/></clipPath><clipPath id="ea6a280520"><path d="M 171.53125 136.917969 C 163.171875 128.558594 151.722656 123.234375 139.046875 122.699219 C 139.527344 135.375 144.851562 146.769531 153.265625 155.183594 C 161.625 163.542969 173.074219 168.867188 185.75 169.402344 C 185.214844 156.726562 179.890625 145.277344 171.53125 136.917969 M 137.132812 118.972656 C 151.5625 118.972656 164.660156 124.832031 174.140625 134.308594 C 183.617188 143.789062 189.476562 156.832031 189.476562 171.316406 L 189.476562 173.183594 L 187.613281 173.183594 C 173.183594 173.183594 160.082031 167.324219 150.605469 157.84375 C 141.125 148.367188 135.269531 135.320312 135.269531 120.835938 L 135.269531 118.972656 Z M 137.132812 118.972656 " clip-rule="nonzero"/></clipPath><linearGradient x1="202.619" gradientTransform="matrix(0.5325, 0, 0, 0.5325, 54.48746, 54.487459)" y1="121.099994" x2="202.619" gradientUnits="userSpaceOnUse" y2="222.899991" id="426e05b6cb"><stop stop-opacity="1" stop-color="rgb(80.502319%, 70.301819%, 44.801331%)" offset="0"/><stop stop-opacity="1" stop-color="rgb(80.361938%, 70.161438%, 44.66095%)" offset="0.0625"/><stop stop-opacity="1" stop-color="rgb(80.082703%, 69.882202%, 44.38324%)" offset="0.125"/><stop stop-opacity="1" stop-color="rgb(79.803467%, 69.602966%, 44.104004%)" offset="0.1875"/><stop stop-opacity="1" stop-color="rgb(79.524231%, 69.32373%, 43.824768%)" offset="0.25"/><stop stop-opacity="1" stop-color="rgb(79.244995%, 69.046021%, 43.545532%)" offset="0.3125"/><stop stop-opacity="1" stop-color="rgb(78.965759%, 68.766785%, 43.266296%)" offset="0.375"/><stop stop-opacity="1" stop-color="rgb(78.686523%, 68.487549%, 42.987061%)" offset="0.4375"/><stop stop-opacity="1" stop-color="rgb(78.408813%, 68.208313%, 42.707825%)" offset="0.5"/><stop stop-opacity="1" stop-color="rgb(78.129578%, 67.929077%, 42.428589%)" offset="0.5625"/><stop stop-opacity="1" stop-color="rgb(77.850342%, 67.649841%, 42.149353%)" offset="0.625"/><stop stop-opacity="1" stop-color="rgb(77.571106%, 67.370605%, 41.871643%)" offset="0.6875"/><stop stop-opacity="1" stop-color="rgb(77.29187%, 67.09137%, 41.592407%)" offset="0.75"/><stop stop-opacity="1" stop-color="rgb(77.012634%, 66.812134%, 41.313171%)" offset="0.8125"/><stop stop-opacity="1" stop-color="rgb(76.733398%, 66.534424%, 41.033936%)" offset="0.875"/><stop stop-opacity="1" stop-color="rgb(76.454163%, 66.255188%, 40.7547%)" offset="0.9375"/><stop stop-opacity="1" stop-color="rgb(76.174927%, 65.975952%, 40.475464%)" offset="1"/></linearGradient><clipPath id="073ba5d733"><path d="M 185.75 118.972656 L 239.902344 118.972656 L 239.902344 173.183594 L 185.75 173.183594 Z M 185.75 118.972656 " clip-rule="nonzero"/></clipPath><clipPath id="c6d8ba8be2"><path d="M 201.085938 134.257812 C 210.5625 124.777344 223.609375 118.921875 238.09375 118.921875 L 239.957031 118.921875 L 239.957031 120.785156 C 239.957031 135.214844 234.101562 148.3125 224.621094 157.792969 C 215.144531 167.269531 202.097656 173.128906 187.613281 173.128906 L 185.75 173.128906 L 185.75 171.265625 C 185.75 156.832031 191.605469 143.734375 201.085938 134.257812 M 236.175781 122.699219 C 223.503906 123.179688 212.109375 128.503906 203.695312 136.917969 C 195.332031 145.277344 190.007812 156.726562 189.476562 169.402344 C 202.148438 168.921875 213.546875 163.597656 221.957031 155.183594 C 230.371094 146.824219 235.695312 135.375 236.175781 122.699219 Z M 236.175781 122.699219 " clip-rule="nonzero"/></clipPath><linearGradient x1="297.37399" gradientTransform="matrix(0.5325, 0, 0, 0.5325, 54.48746, 54.487459)" y1="121.099994" x2="297.37399" gradientUnits="userSpaceOnUse" y2="222.800002" id="f59fabf692"><stop stop-opacity="1" stop-color="rgb(80.502319%, 70.301819%, 44.801331%)" offset="0"/><stop stop-opacity="1" stop-color="rgb(80.361938%, 70.161438%, 44.662476%)" offset="0.0625"/><stop stop-opacity="1" stop-color="rgb(80.082703%, 69.883728%, 44.38324%)" offset="0.125"/><stop stop-opacity="1" stop-color="rgb(79.804993%, 69.604492%, 44.104004%)" offset="0.1875"/><stop stop-opacity="1" stop-color="rgb(79.525757%, 69.325256%, 43.824768%)" offset="0.25"/><stop stop-opacity="1" stop-color="rgb(79.246521%, 69.046021%, 43.547058%)" offset="0.3125"/><stop stop-opacity="1" stop-color="rgb(78.967285%, 68.768311%, 43.267822%)" offset="0.375"/><stop stop-opacity="1" stop-color="rgb(78.689575%, 68.489075%, 42.988586%)" offset="0.4375"/><stop stop-opacity="1" stop-color="rgb(78.410339%, 68.209839%, 42.710876%)" offset="0.5"/><stop stop-opacity="1" stop-color="rgb(78.131104%, 67.932129%, 42.431641%)" offset="0.5625"/><stop stop-opacity="1" stop-color="rgb(77.853394%, 67.652893%, 42.152405%)" offset="0.625"/><stop stop-opacity="1" stop-color="rgb(77.574158%, 67.373657%, 41.873169%)" offset="0.6875"/><stop stop-opacity="1" stop-color="rgb(77.294922%, 67.094421%, 41.595459%)" offset="0.75"/><stop stop-opacity="1" stop-color="rgb(77.015686%, 66.816711%, 41.316223%)" offset="0.8125"/><stop stop-opacity="1" stop-color="rgb(76.737976%, 66.537476%, 41.036987%)" offset="0.875"/><stop stop-opacity="1" stop-color="rgb(76.45874%, 66.25824%, 40.759277%)" offset="0.9375"/><stop stop-opacity="1" stop-color="rgb(76.179504%, 65.98053%, 40.480042%)" offset="1"/></linearGradient><clipPath id="e720150b38"><path d="M 185.75 126.90625 L 189.476562 126.90625 L 189.476562 187.613281 L 185.75 187.613281 Z M 185.75 126.90625 " clip-rule="nonzero"/></clipPath><linearGradient x1="249.99699" gradientTransform="matrix(0.5325, 0, 0, 0.5325, 54.48746, 54.487459)" y1="135.999996" x2="249.99699" gradientUnits="userSpaceOnUse" y2="249.999993" id="ade7286617"><stop stop-opacity="1" stop-color="rgb(79.847717%, 69.647217%, 44.146729%)" offset="0"/><stop stop-opacity="1" stop-color="rgb(79.690552%, 69.490051%, 43.991089%)" offset="0.0625"/><stop stop-opacity="1" stop-color="rgb(79.377747%, 69.177246%, 43.678284%)" offset="0.125"/><stop stop-opacity="1" stop-color="rgb(79.064941%, 68.865967%, 43.365479%)" offset="0.1875"/><stop stop-opacity="1" stop-color="rgb(78.752136%, 68.553162%, 43.052673%)" offset="0.25"/><stop stop-opacity="1" stop-color="rgb(78.440857%, 68.240356%, 42.739868%)" offset="0.3125"/><stop stop-opacity="1" stop-color="rgb(78.128052%, 67.927551%, 42.427063%)" offset="0.375"/><stop stop-opacity="1" stop-color="rgb(77.815247%, 67.614746%, 42.115784%)" offset="0.4375"/><stop stop-opacity="1" stop-color="rgb(77.502441%, 67.301941%, 41.802979%)" offset="0.5"/><stop stop-opacity="1" stop-color="rgb(77.189636%, 66.990662%, 41.490173%)" offset="0.5625"/><stop stop-opacity="1" stop-color="rgb(76.876831%, 66.677856%, 41.177368%)" offset="0.625"/><stop stop-opacity="1" stop-color="rgb(76.565552%, 66.365051%, 40.864563%)" offset="0.6875"/><stop stop-opacity="1" stop-color="rgb(76.252747%, 66.052246%, 40.551758%)" offset="0.75"/><stop stop-opacity="1" stop-color="rgb(75.939941%, 65.739441%, 40.240479%)" offset="0.8125"/><stop stop-opacity="1" stop-color="rgb(75.627136%, 65.426636%, 39.927673%)" offset="0.875"/><stop stop-opacity="1" stop-color="rgb(75.314331%, 65.115356%, 39.614868%)" offset="0.9375"/><stop stop-opacity="1" stop-color="rgb(75.001526%, 64.802551%, 39.302063%)" offset="1"/></linearGradient><clipPath id="269b8c250e"><path d="M 170.945312 54.488281 L 204.226562 54.488281 L 204.226562 131.113281 L 170.945312 131.113281 Z M 170.945312 54.488281 " clip-rule="nonzero"/></clipPath><clipPath id="2e2799ee17"><path d="M 187.613281 59.8125 C 178.984375 69.132812 174.671875 80.953125 174.671875 92.828125 C 174.671875 104.648438 178.984375 116.523438 187.613281 125.84375 C 196.238281 116.523438 200.550781 104.703125 200.550781 92.828125 C 200.550781 80.953125 196.238281 69.132812 187.613281 59.8125 M 186.28125 55.820312 L 187.613281 54.488281 L 188.945312 55.820312 C 199.167969 66.042969 204.28125 79.410156 204.28125 92.828125 C 204.28125 106.191406 199.167969 119.613281 188.945312 129.835938 L 187.613281 131.167969 L 186.28125 129.835938 C 176.058594 119.613281 170.945312 106.246094 170.945312 92.828125 C 170.945312 79.410156 176.058594 66.042969 186.28125 55.820312 Z M 186.28125 55.820312 " clip-rule="nonzero"/></clipPath><linearGradient x1="249.99699" gradientTransform="matrix(0.5325, 0, 0, 0.5325, 54.48746, 54.487459)" y1="-0.00000576584" x2="249.99699" gradientUnits="userSpaceOnUse" y2="143.89999" id="ff98c8424b"><stop stop-opacity="1" stop-color="rgb(85.813904%, 75.613403%, 50.112915%)" offset="0"/><stop stop-opacity="1" stop-color="rgb(85.714722%, 75.514221%, 50.013733%)" offset="0.03125"/><stop stop-opacity="1" stop-color="rgb(85.516357%, 75.317383%, 49.816895%)" offset="0.0625"/><stop stop-opacity="1" stop-color="rgb(85.319519%, 75.120544%, 49.620056%)" offset="0.09375"/><stop stop-opacity="1" stop-color="rgb(85.122681%, 74.92218%, 49.423218%)" offset="0.125"/><stop stop-opacity="1" stop-color="rgb(84.925842%, 74.725342%, 49.224854%)" offset="0.15625"/><stop stop-opacity="1" stop-color="rgb(84.727478%, 74.528503%, 49.028015%)" offset="0.1875"/><stop stop-opacity="1" stop-color="rgb(84.53064%, 74.330139%, 48.831177%)" offset="0.21875"/><stop stop-opacity="1" stop-color="rgb(84.333801%, 74.133301%, 48.634338%)" offset="0.25"/><stop stop-opacity="1" stop-color="rgb(84.136963%, 73.936462%, 48.435974%)" offset="0.28125"/><stop stop-opacity="1" stop-color="rgb(83.938599%, 73.739624%, 48.239136%)" offset="0.3125"/><stop stop-opacity="1" stop-color="rgb(83.74176%, 73.54126%, 48.042297%)" offset="0.34375"/><stop stop-opacity="1" stop-color="rgb(83.544922%, 73.344421%, 47.843933%)" offset="0.375"/><stop stop-opacity="1" stop-color="rgb(83.348083%, 73.147583%, 47.647095%)" offset="0.40625"/><stop stop-opacity="1" stop-color="rgb(83.149719%, 72.950745%, 47.450256%)" offset="0.4375"/><stop stop-opacity="1" stop-color="rgb(82.952881%, 72.75238%, 47.253418%)" offset="0.46875"/><stop stop-opacity="1" stop-color="rgb(82.756042%, 72.555542%, 47.055054%)" offset="0.5"/><stop stop-opacity="1" stop-color="rgb(82.559204%, 72.358704%, 46.858215%)" offset="0.53125"/><stop stop-opacity="1" stop-color="rgb(82.36084%, 72.161865%, 46.661377%)" offset="0.5625"/><stop stop-opacity="1" stop-color="rgb(82.164001%, 71.963501%, 46.464539%)" offset="0.59375"/><stop stop-opacity="1" stop-color="rgb(81.967163%, 71.766663%, 46.266174%)" offset="0.625"/><stop stop-opacity="1" stop-color="rgb(81.768799%, 71.569824%, 46.069336%)" offset="0.65625"/><stop stop-opacity="1" stop-color="rgb(81.57196%, 71.372986%, 45.872498%)" offset="0.6875"/><stop stop-opacity="1" stop-color="rgb(81.375122%, 71.174622%, 45.675659%)" offset="0.71875"/><stop stop-opacity="1" stop-color="rgb(81.178284%, 70.977783%, 45.477295%)" offset="0.75"/><stop stop-opacity="1" stop-color="rgb(80.979919%, 70.780945%, 45.280457%)" offset="0.78125"/><stop stop-opacity="1" stop-color="rgb(80.783081%, 70.582581%, 45.083618%)" offset="0.8125"/><stop stop-opacity="1" stop-color="rgb(80.586243%, 70.385742%, 44.88678%)" offset="0.84375"/><stop stop-opacity="1" stop-color="rgb(80.389404%, 70.188904%, 44.688416%)" offset="0.875"/><stop stop-opacity="1" stop-color="rgb(80.19104%, 69.992065%, 44.491577%)" offset="0.90625"/><stop stop-opacity="1" stop-color="rgb(79.994202%, 69.793701%, 44.294739%)" offset="0.9375"/><stop stop-opacity="1" stop-color="rgb(79.797363%, 69.596863%, 44.096375%)" offset="0.96875"/><stop stop-opacity="1" stop-color="rgb(79.600525%, 69.400024%, 43.899536%)" offset="1"/></linearGradient><clipPath id="a1210090c1"><path d="M 199 76.320312 L 235.539062 76.320312 L 235.539062 137.238281 L 199 137.238281 Z M 199 76.320312 " clip-rule="nonzero"/></clipPath><clipPath id="6ee1bfe6eb"><path d="M 213.277344 98.898438 C 214.984375 100.601562 217.058594 101.613281 219.242188 101.933594 C 220.414062 100.976562 221.480469 100.015625 222.4375 99.003906 L 222.542969 98.898438 C 223.824219 97.621094 224.460938 95.96875 224.460938 94.265625 C 224.460938 92.613281 223.824219 90.910156 222.542969 89.632812 C 221.265625 88.355469 219.617188 87.714844 217.910156 87.714844 C 216.261719 87.714844 214.558594 88.355469 213.277344 89.632812 C 212 90.910156 211.363281 92.5625 211.363281 94.265625 C 211.363281 95.914062 212 97.621094 213.277344 98.898438 M 210.667969 80.898438 C 213.492188 78.078125 217.21875 76.640625 220.945312 76.640625 C 224.675781 76.640625 228.402344 78.078125 231.222656 80.898438 C 234.046875 83.722656 235.484375 87.449219 235.484375 91.175781 C 235.484375 94.902344 234.046875 98.632812 231.222656 101.453125 C 228.402344 104.277344 224.675781 105.714844 220.945312 105.714844 L 220.359375 105.714844 L 218.976562 106.726562 C 215.25 109.496094 211.09375 112.582031 207.792969 118.492188 C 202.46875 127.867188 202.734375 137.078125 202.734375 137.078125 L 199.007812 137.132812 C 199.007812 137.078125 198.742188 126.90625 204.546875 116.628906 C 207.902344 110.667969 211.839844 107.417969 215.515625 104.648438 C 213.757812 103.957031 212.054688 102.890625 210.617188 101.402344 C 208.59375 99.378906 207.632812 96.769531 207.632812 94.160156 C 207.632812 91.550781 208.644531 88.886719 210.617188 86.917969 C 212.640625 84.894531 215.25 83.933594 217.859375 83.933594 C 220.46875 83.933594 223.128906 84.945312 225.101562 86.917969 C 227.125 88.941406 228.082031 91.550781 228.082031 94.160156 C 228.082031 96.554688 227.230469 98.953125 225.578125 100.867188 C 226.644531 100.335938 227.65625 99.644531 228.5625 98.738281 C 230.691406 96.609375 231.757812 93.839844 231.757812 91.070312 C 231.757812 88.300781 230.691406 85.53125 228.5625 83.402344 C 220.148438 75.09375 215.941406 86.222656 210.667969 80.898438 Z M 210.667969 80.898438 " clip-rule="nonzero"/></clipPath><linearGradient x1="305.41299" gradientTransform="matrix(0.5325, 0, 0, 0.5325, 54.48746, 54.487459)" y1="40.99999" x2="305.41299" gradientUnits="userSpaceOnUse" y2="155.200006" id="59a9fbc8d9"><stop stop-opacity="1" stop-color="rgb(84.014893%, 73.815918%, 48.31543%)" offset="0"/><stop stop-opacity="1" stop-color="rgb(83.857727%, 73.658752%, 48.158264%)" offset="0.0625"/><stop stop-opacity="1" stop-color="rgb(83.544922%, 73.344421%, 47.845459%)" offset="0.125"/><stop stop-opacity="1" stop-color="rgb(83.232117%, 73.031616%, 47.532654%)" offset="0.1875"/><stop stop-opacity="1" stop-color="rgb(82.919312%, 72.718811%, 47.218323%)" offset="0.25"/><stop stop-opacity="1" stop-color="rgb(82.606506%, 72.406006%, 46.905518%)" offset="0.3125"/><stop stop-opacity="1" stop-color="rgb(82.292175%, 72.093201%, 46.592712%)" offset="0.375"/><stop stop-opacity="1" stop-color="rgb(81.97937%, 71.780396%, 46.279907%)" offset="0.4375"/><stop stop-opacity="1" stop-color="rgb(81.666565%, 71.466064%, 45.967102%)" offset="0.5"/><stop stop-opacity="1" stop-color="rgb(81.35376%, 71.153259%, 45.652771%)" offset="0.5625"/><stop stop-opacity="1" stop-color="rgb(81.040955%, 70.840454%, 45.339966%)" offset="0.625"/><stop stop-opacity="1" stop-color="rgb(80.726624%, 70.527649%, 45.027161%)" offset="0.6875"/><stop stop-opacity="1" stop-color="rgb(80.413818%, 70.214844%, 44.714355%)" offset="0.75"/><stop stop-opacity="1" stop-color="rgb(80.101013%, 69.900513%, 44.40155%)" offset="0.8125"/><stop stop-opacity="1" stop-color="rgb(79.788208%, 69.587708%, 44.088745%)" offset="0.875"/><stop stop-opacity="1" stop-color="rgb(79.475403%, 69.274902%, 43.774414%)" offset="0.9375"/><stop stop-opacity="1" stop-color="rgb(79.162598%, 68.962097%, 43.461609%)" offset="1"/></linearGradient><clipPath id="4566ee81fd"><path d="M 139.742188 76.320312 L 176.429688 76.320312 L 176.429688 137.238281 L 139.742188 137.238281 Z M 139.742188 76.320312 " clip-rule="nonzero"/></clipPath><clipPath id="24e5ffaedc"><path d="M 155.980469 101.933594 C 158.164062 101.613281 160.242188 100.601562 161.945312 98.898438 C 163.222656 97.621094 163.863281 95.96875 163.863281 94.265625 C 163.863281 92.613281 163.222656 90.910156 161.945312 89.632812 C 160.667969 88.355469 159.015625 87.714844 157.3125 87.714844 C 155.664062 87.714844 153.957031 88.355469 152.679688 89.632812 C 151.402344 90.910156 150.761719 92.5625 150.761719 94.265625 C 150.761719 95.914062 151.402344 97.621094 152.679688 98.898438 L 152.785156 99.003906 C 153.691406 100.015625 154.808594 100.976562 155.980469 101.933594 M 146.609375 83.5625 C 144.480469 85.691406 143.414062 88.460938 143.414062 91.230469 C 143.414062 94 144.480469 96.769531 146.609375 98.898438 C 147.515625 99.804688 148.527344 100.496094 149.59375 101.027344 C 147.941406 99.109375 147.089844 96.714844 147.089844 94.320312 C 147.089844 91.710938 148.101562 89.046875 150.070312 87.078125 C 152.09375 85.054688 154.703125 84.09375 157.3125 84.09375 C 159.921875 84.09375 162.53125 85.105469 164.554688 87.078125 C 166.578125 89.101562 167.539062 91.710938 167.539062 94.320312 C 167.539062 96.925781 166.527344 99.589844 164.554688 101.558594 C 163.117188 103 161.464844 104.0625 159.65625 104.808594 C 163.332031 107.578125 167.269531 110.878906 170.625 116.789062 C 176.429688 127.066406 176.164062 137.238281 176.164062 137.292969 L 172.4375 137.238281 C 172.4375 137.183594 172.648438 128.027344 167.378906 118.652344 C 164.023438 112.742188 159.871094 109.65625 156.195312 106.886719 L 154.808594 105.875 L 154.226562 105.875 C 150.496094 105.875 146.769531 104.4375 143.949219 101.613281 C 141.125 98.792969 139.6875 95.0625 139.6875 91.335938 C 139.6875 87.609375 141.125 83.882812 143.949219 81.058594 C 146.769531 78.238281 150.496094 76.800781 154.226562 76.800781 C 157.953125 76.800781 161.679688 78.238281 164.503906 81.058594 C 159.285156 86.222656 155.078125 75.09375 146.609375 83.5625 Z M 146.609375 83.5625 " clip-rule="nonzero"/></clipPath><linearGradient x1="194.582" gradientTransform="matrix(0.5325, 0, 0, 0.5325, 54.48746, 54.487459)" y1="40.99999" x2="194.582" gradientUnits="userSpaceOnUse" y2="155.399995" id="f08c074ccd"><stop stop-opacity="1" stop-color="rgb(84.014893%, 73.815918%, 48.31543%)" offset="0"/><stop stop-opacity="1" stop-color="rgb(83.857727%, 73.658752%, 48.158264%)" offset="0.0625"/><stop stop-opacity="1" stop-color="rgb(83.544922%, 73.344421%, 47.843933%)" offset="0.125"/><stop stop-opacity="1" stop-color="rgb(83.230591%, 73.03009%, 47.531128%)" offset="0.1875"/><stop stop-opacity="1" stop-color="rgb(82.917786%, 72.717285%, 47.216797%)" offset="0.25"/><stop stop-opacity="1" stop-color="rgb(82.603455%, 72.402954%, 46.903992%)" offset="0.3125"/><stop stop-opacity="1" stop-color="rgb(82.290649%, 72.090149%, 46.589661%)" offset="0.375"/><stop stop-opacity="1" stop-color="rgb(81.976318%, 71.775818%, 46.276855%)" offset="0.4375"/><stop stop-opacity="1" stop-color="rgb(81.661987%, 71.463013%, 45.962524%)" offset="0.5"/><stop stop-opacity="1" stop-color="rgb(81.349182%, 71.148682%, 45.649719%)" offset="0.5625"/><stop stop-opacity="1" stop-color="rgb(81.034851%, 70.835876%, 45.335388%)" offset="0.625"/><stop stop-opacity="1" stop-color="rgb(80.722046%, 70.521545%, 45.022583%)" offset="0.6875"/><stop stop-opacity="1" stop-color="rgb(80.407715%, 70.20874%, 44.708252%)" offset="0.75"/><stop stop-opacity="1" stop-color="rgb(80.09491%, 69.894409%, 44.393921%)" offset="0.8125"/><stop stop-opacity="1" stop-color="rgb(79.780579%, 69.581604%, 44.081116%)" offset="0.875"/><stop stop-opacity="1" stop-color="rgb(79.467773%, 69.267273%, 43.766785%)" offset="0.9375"/><stop stop-opacity="1" stop-color="rgb(79.153442%, 68.954468%, 43.453979%)" offset="1"/></linearGradient><clipPath id="c31f4520d4"><path d="M 202.097656 135.269531 L 256.304688 135.269531 L 256.304688 189.421875 L 202.097656 189.421875 Z M 202.097656 135.269531 " clip-rule="nonzero"/></clipPath><clipPath id="72af7c82d8"><path d="M 238.304688 171.53125 C 246.667969 163.171875 251.992188 151.722656 252.523438 139.046875 C 239.851562 139.527344 228.457031 144.851562 220.042969 153.265625 C 211.679688 161.625 206.355469 173.074219 205.824219 185.75 C 218.496094 185.214844 229.945312 179.890625 238.304688 171.53125 M 256.25 137.132812 C 256.25 151.5625 250.394531 164.660156 240.914062 174.140625 C 231.4375 183.617188 218.390625 189.476562 203.90625 189.476562 L 202.042969 189.476562 L 202.042969 187.613281 C 202.042969 173.183594 207.902344 160.082031 217.378906 150.605469 C 226.859375 141.125 239.902344 135.269531 254.386719 135.269531 L 256.25 135.269531 Z M 256.25 137.132812 " clip-rule="nonzero"/></clipPath><linearGradient x1="328.06699" gradientTransform="matrix(0.5325, 0, 0, 0.5325, 54.48746, 54.487459)" y1="151.700008" x2="328.06699" gradientUnits="userSpaceOnUse" y2="253.399992" id="edb2a7a7ed"><stop stop-opacity="1" stop-color="rgb(79.159546%, 68.959045%, 43.460083%)" offset="0"/><stop stop-opacity="1" stop-color="rgb(79.019165%, 68.82019%, 43.319702%)" offset="0.0625"/><stop stop-opacity="1" stop-color="rgb(78.741455%, 68.540955%, 43.040466%)" offset="0.125"/><stop stop-opacity="1" stop-color="rgb(78.462219%, 68.261719%, 42.762756%)" offset="0.1875"/><stop stop-opacity="1" stop-color="rgb(78.182983%, 67.984009%, 42.483521%)" offset="0.25"/><stop stop-opacity="1" stop-color="rgb(77.905273%, 67.704773%, 42.204285%)" offset="0.3125"/><stop stop-opacity="1" stop-color="rgb(77.626038%, 67.425537%, 41.925049%)" offset="0.375"/><stop stop-opacity="1" stop-color="rgb(77.346802%, 67.146301%, 41.647339%)" offset="0.4375"/><stop stop-opacity="1" stop-color="rgb(77.067566%, 66.868591%, 41.368103%)" offset="0.5"/><stop stop-opacity="1" stop-color="rgb(76.789856%, 66.589355%, 41.088867%)" offset="0.5625"/><stop stop-opacity="1" stop-color="rgb(76.51062%, 66.31012%, 40.811157%)" offset="0.625"/><stop stop-opacity="1" stop-color="rgb(76.231384%, 66.03241%, 40.531921%)" offset="0.6875"/><stop stop-opacity="1" stop-color="rgb(75.953674%, 65.753174%, 40.252686%)" offset="0.75"/><stop stop-opacity="1" stop-color="rgb(75.674438%, 65.473938%, 39.97345%)" offset="0.8125"/><stop stop-opacity="1" stop-color="rgb(75.395203%, 65.194702%, 39.69574%)" offset="0.875"/><stop stop-opacity="1" stop-color="rgb(75.115967%, 64.916992%, 39.416504%)" offset="0.9375"/><stop stop-opacity="1" stop-color="rgb(74.838257%, 64.637756%, 39.137268%)" offset="1"/></linearGradient><clipPath id="6390b00a26"><path d="M 202.097656 185.75 L 256.304688 185.75 L 256.304688 239.902344 L 202.097656 239.902344 Z M 202.097656 185.75 " clip-rule="nonzero"/></clipPath><clipPath id="e9af5028ee"><path d="M 240.96875 201.085938 C 250.449219 210.5625 256.304688 223.609375 256.304688 238.09375 L 256.304688 239.957031 L 254.441406 239.957031 C 240.011719 239.957031 226.910156 234.101562 217.433594 224.621094 C 207.953125 215.144531 202.097656 202.097656 202.097656 187.613281 L 202.097656 185.75 L 203.960938 185.75 C 218.390625 185.75 231.492188 191.605469 240.96875 201.085938 M 252.523438 236.175781 C 252.046875 223.503906 246.71875 212.109375 238.304688 203.695312 C 229.945312 195.332031 218.496094 190.007812 205.824219 189.476562 C 206.304688 202.148438 211.628906 213.546875 220.042969 221.957031 C 228.402344 230.371094 239.851562 235.695312 252.523438 236.175781 Z M 252.523438 236.175781 " clip-rule="nonzero"/></clipPath><linearGradient x1="328.06699" gradientTransform="matrix(0.5325, 0, 0, 0.5325, 54.48746, 54.487459)" y1="246.499998" x2="328.06699" gradientUnits="userSpaceOnUse" y2="348.200011" id="c9367297ac"><stop stop-opacity="1" stop-color="rgb(75.001526%, 64.801025%, 39.302063%)" offset="0"/><stop stop-opacity="1" stop-color="rgb(74.861145%, 64.66217%, 39.161682%)" offset="0.0625"/><stop stop-opacity="1" stop-color="rgb(74.583435%, 64.382935%, 38.882446%)" offset="0.125"/><stop stop-opacity="1" stop-color="rgb(74.304199%, 64.103699%, 38.604736%)" offset="0.1875"/><stop stop-opacity="1" stop-color="rgb(74.024963%, 63.824463%, 38.3255%)" offset="0.25"/><stop stop-opacity="1" stop-color="rgb(73.745728%, 63.546753%, 38.046265%)" offset="0.3125"/><stop stop-opacity="1" stop-color="rgb(73.468018%, 63.267517%, 37.767029%)" offset="0.375"/><stop stop-opacity="1" stop-color="rgb(73.188782%, 62.988281%, 37.489319%)" offset="0.4375"/><stop stop-opacity="1" stop-color="rgb(72.909546%, 62.710571%, 37.210083%)" offset="0.5"/><stop stop-opacity="1" stop-color="rgb(72.631836%, 62.431335%, 36.930847%)" offset="0.5625"/><stop stop-opacity="1" stop-color="rgb(72.3526%, 62.1521%, 36.653137%)" offset="0.625"/><stop stop-opacity="1" stop-color="rgb(72.073364%, 61.87439%, 36.373901%)" offset="0.6875"/><stop stop-opacity="1" stop-color="rgb(71.794128%, 61.595154%, 36.094666%)" offset="0.75"/><stop stop-opacity="1" stop-color="rgb(71.516418%, 61.315918%, 35.81543%)" offset="0.8125"/><stop stop-opacity="1" stop-color="rgb(71.237183%, 61.036682%, 35.53772%)" offset="0.875"/><stop stop-opacity="1" stop-color="rgb(70.957947%, 60.758972%, 35.258484%)" offset="0.9375"/><stop stop-opacity="1" stop-color="rgb(70.680237%, 60.479736%, 34.979248%)" offset="1"/></linearGradient><clipPath id="7d9c47d0de"><path d="M 187.613281 185.75 L 247.679688 185.75 L 247.679688 189.476562 L 187.613281 189.476562 Z M 187.613281 185.75 " clip-rule="nonzero"/></clipPath><linearGradient x1="306.39001" gradientTransform="matrix(0.5325, 0, 0, 0.5325, 54.48746, 54.487459)" y1="246.499998" x2="306.39001" gradientUnits="userSpaceOnUse" y2="253.499991" id="69bf58be27"><stop stop-opacity="1" stop-color="rgb(75.001526%, 64.801025%, 39.302063%)" offset="0"/><stop stop-opacity="1" stop-color="rgb(74.923706%, 64.724731%, 39.224243%)" offset="0.5"/><stop stop-opacity="1" stop-color="rgb(74.771118%, 64.570618%, 39.070129%)" offset="1"/></linearGradient><clipPath id="ebb09a1bb1"><path d="M 244.109375 171 L 320.738281 171 L 320.738281 204.28125 L 244.109375 204.28125 Z M 244.109375 171 " clip-rule="nonzero"/></clipPath><clipPath id="9608e75d4a"><path d="M 315.414062 187.613281 C 306.09375 178.984375 294.273438 174.671875 282.398438 174.671875 C 270.574219 174.671875 258.703125 178.984375 249.382812 187.613281 C 258.703125 196.238281 270.523438 200.550781 282.398438 200.550781 C 294.273438 200.550781 306.09375 196.238281 315.414062 187.613281 M 319.40625 186.28125 L 320.738281 187.613281 L 319.40625 188.945312 C 309.183594 199.167969 295.816406 204.28125 282.398438 204.28125 C 269.03125 204.28125 255.613281 199.167969 245.390625 188.945312 L 244.058594 187.613281 L 245.390625 186.28125 C 255.613281 176.058594 268.976562 170.945312 282.398438 170.945312 C 295.816406 171 309.183594 176.058594 319.40625 186.28125 Z M 319.40625 186.28125 " clip-rule="nonzero"/></clipPath><linearGradient x1="428.048" gradientTransform="matrix(0.5325, 0, 0, 0.5325, 54.48746, 54.487459)" y1="218.799997" x2="428.048" gradientUnits="userSpaceOnUse" y2="281.299978" id="d2ddc515ce"><stop stop-opacity="1" stop-color="rgb(76.216125%, 66.017151%, 40.516663%)" offset="0"/><stop stop-opacity="1" stop-color="rgb(76.045227%, 65.844727%, 40.344238%)" offset="0.125"/><stop stop-opacity="1" stop-color="rgb(75.701904%, 65.501404%, 40.002441%)" offset="0.25"/><stop stop-opacity="1" stop-color="rgb(75.360107%, 65.159607%, 39.659119%)" offset="0.375"/><stop stop-opacity="1" stop-color="rgb(75.016785%, 64.816284%, 39.317322%)" offset="0.5"/><stop stop-opacity="1" stop-color="rgb(74.673462%, 64.474487%, 38.973999%)" offset="0.625"/><stop stop-opacity="1" stop-color="rgb(74.331665%, 64.131165%, 38.630676%)" offset="0.75"/><stop stop-opacity="1" stop-color="rgb(73.988342%, 63.789368%, 38.288879%)" offset="0.875"/><stop stop-opacity="1" stop-color="rgb(73.646545%, 63.446045%, 37.945557%)" offset="1"/></linearGradient><clipPath id="7a8e40aa8a"><path d="M 238 199 L 298.90625 199 L 298.90625 235.539062 L 238 235.539062 Z M 238 199 " clip-rule="nonzero"/></clipPath><clipPath id="b396b0f381"><path d="M 276.378906 213.277344 C 274.675781 214.984375 273.664062 217.058594 273.34375 219.242188 C 274.304688 220.414062 275.261719 221.480469 276.273438 222.4375 L 276.378906 222.492188 C 277.65625 223.769531 279.308594 224.410156 281.011719 224.410156 C 282.664062 224.410156 284.367188 223.769531 285.644531 222.492188 C 286.921875 221.214844 287.5625 219.5625 287.5625 217.859375 C 287.5625 216.207031 286.921875 214.503906 285.644531 213.226562 C 284.367188 211.949219 282.71875 211.308594 281.011719 211.308594 C 279.308594 211.363281 277.605469 212 276.378906 213.277344 M 294.324219 210.667969 C 297.148438 213.492188 298.585938 217.21875 298.585938 220.945312 C 298.585938 224.675781 297.148438 228.402344 294.324219 231.222656 C 291.503906 234.046875 287.777344 235.484375 284.046875 235.484375 C 280.320312 235.484375 276.59375 234.046875 273.769531 231.222656 C 270.949219 228.402344 269.511719 224.675781 269.511719 220.945312 L 269.511719 220.359375 L 268.5 218.976562 C 265.730469 215.25 262.640625 211.09375 256.730469 207.792969 C 247.359375 202.46875 238.148438 202.734375 238.148438 202.734375 L 238.09375 199.007812 C 238.148438 199.007812 248.316406 198.742188 258.59375 204.546875 C 264.558594 207.902344 267.808594 211.839844 270.574219 215.515625 C 271.269531 213.757812 272.386719 212.054688 273.824219 210.617188 C 275.847656 208.59375 278.457031 207.632812 281.066406 207.632812 C 283.675781 207.632812 286.285156 208.644531 288.308594 210.617188 C 290.332031 212.640625 291.289062 215.25 291.289062 217.859375 C 291.289062 220.46875 290.277344 223.078125 288.308594 225.101562 C 286.285156 227.125 283.675781 228.082031 281.066406 228.082031 C 278.671875 228.082031 276.273438 227.230469 274.355469 225.578125 C 274.890625 226.644531 275.582031 227.65625 276.488281 228.5625 C 278.617188 230.691406 281.386719 231.757812 284.15625 231.757812 C 286.921875 231.757812 289.691406 230.691406 291.824219 228.5625 C 300.128906 220.148438 289 215.941406 294.324219 210.667969 Z M 294.324219 210.667969 " clip-rule="nonzero"/></clipPath><linearGradient x1="402.95401" gradientTransform="matrix(0.5325, 0, 0, 0.5325, 54.48746, 54.487459)" y1="270.999994" x2="402.95401" gradientUnits="userSpaceOnUse" y2="339.899943" id="f6c28303e9"><stop stop-opacity="1" stop-color="rgb(73.927307%, 63.726807%, 38.226318%)" offset="0"/><stop stop-opacity="1" stop-color="rgb(73.738098%, 63.537598%, 38.037109%)" offset="0.125"/><stop stop-opacity="1" stop-color="rgb(73.35968%, 63.160706%, 37.660217%)" offset="0.25"/><stop stop-opacity="1" stop-color="rgb(72.982788%, 62.782288%, 37.281799%)" offset="0.375"/><stop stop-opacity="1" stop-color="rgb(72.60437%, 62.40387%, 36.904907%)" offset="0.5"/><stop stop-opacity="1" stop-color="rgb(72.225952%, 62.026978%, 36.526489%)" offset="0.625"/><stop stop-opacity="1" stop-color="rgb(71.84906%, 61.64856%, 36.149597%)" offset="0.75"/><stop stop-opacity="1" stop-color="rgb(71.470642%, 61.271667%, 35.771179%)" offset="0.875"/><stop stop-opacity="1" stop-color="rgb(71.09375%, 60.89325%, 35.392761%)" offset="1"/></linearGradient><clipPath id="59194fa7e7"><path d="M 237.988281 139.742188 L 298.90625 139.742188 L 298.90625 176.429688 L 237.988281 176.429688 Z M 237.988281 139.742188 " clip-rule="nonzero"/></clipPath><clipPath id="37b6d3d487"><path d="M 273.292969 155.980469 C 273.609375 158.164062 274.621094 160.242188 276.328125 161.945312 C 277.605469 163.222656 279.253906 163.863281 280.960938 163.863281 C 282.609375 163.863281 284.3125 163.222656 285.59375 161.945312 C 286.871094 160.667969 287.507812 159.015625 287.507812 157.3125 C 287.507812 155.664062 286.871094 153.957031 285.59375 152.679688 C 284.316406 151.402344 282.664062 150.761719 280.960938 150.761719 C 279.308594 150.761719 277.605469 151.402344 276.328125 152.679688 L 276.21875 152.785156 C 275.207031 153.691406 274.25 154.808594 273.292969 155.980469 M 291.664062 146.609375 C 289.53125 144.480469 286.765625 143.414062 283.996094 143.414062 C 281.226562 143.414062 278.457031 144.480469 276.328125 146.609375 C 275.421875 147.515625 274.730469 148.527344 274.195312 149.59375 C 276.113281 147.941406 278.511719 147.089844 280.90625 147.089844 C 283.515625 147.089844 286.179688 148.101562 288.148438 150.070312 C 290.171875 152.09375 291.128906 154.703125 291.128906 157.3125 C 291.128906 159.921875 290.117188 162.53125 288.148438 164.554688 C 286.125 166.578125 283.515625 167.539062 280.90625 167.539062 C 278.296875 167.539062 275.632812 166.527344 273.664062 164.554688 C 272.226562 163.117188 271.160156 161.464844 270.417969 159.65625 C 267.648438 163.332031 264.34375 167.269531 258.433594 170.625 C 248.15625 176.429688 237.988281 176.164062 237.933594 176.164062 L 237.988281 172.4375 C 237.988281 172.4375 247.199219 172.648438 256.570312 167.378906 C 262.480469 164.023438 265.570312 159.871094 268.339844 156.195312 L 269.351562 154.808594 L 269.351562 154.226562 C 269.351562 150.496094 270.789062 146.769531 273.609375 143.949219 C 276.433594 141.125 280.160156 139.6875 283.886719 139.6875 C 287.617188 139.6875 291.34375 141.125 294.164062 143.949219 C 296.988281 146.769531 298.425781 150.496094 298.425781 154.226562 C 298.425781 157.953125 296.988281 161.679688 294.164062 164.503906 C 289 159.285156 300.128906 155.078125 291.664062 146.609375 Z M 291.664062 146.609375 " clip-rule="nonzero"/></clipPath><linearGradient x1="402.95401" gradientTransform="matrix(0.5325, 0, 0, 0.5325, 54.48746, 54.487459)" y1="160.100003" x2="402.95401" gradientUnits="userSpaceOnUse" y2="228.999993" id="1462d930cd"><stop stop-opacity="1" stop-color="rgb(78.791809%, 68.591309%, 43.09082%)" offset="0"/><stop stop-opacity="1" stop-color="rgb(78.6026%, 68.4021%, 42.901611%)" offset="0.125"/><stop stop-opacity="1" stop-color="rgb(78.224182%, 68.023682%, 42.524719%)" offset="0.25"/><stop stop-opacity="1" stop-color="rgb(77.845764%, 67.64679%, 42.146301%)" offset="0.375"/><stop stop-opacity="1" stop-color="rgb(77.468872%, 67.268372%, 41.769409%)" offset="0.5"/><stop stop-opacity="1" stop-color="rgb(77.090454%, 66.891479%, 41.390991%)" offset="0.625"/><stop stop-opacity="1" stop-color="rgb(76.713562%, 66.513062%, 41.012573%)" offset="0.75"/><stop stop-opacity="1" stop-color="rgb(76.335144%, 66.136169%, 40.635681%)" offset="0.875"/><stop stop-opacity="1" stop-color="rgb(75.958252%, 65.757751%, 40.257263%)" offset="1"/></linearGradient><clipPath id="6844b8fe16"><path d="M 185.75 202.097656 L 239.902344 202.097656 L 239.902344 256.304688 L 185.75 256.304688 Z M 185.75 202.097656 " clip-rule="nonzero"/></clipPath><clipPath id="2863f4e11d"><path d="M 203.695312 238.304688 C 212.054688 246.667969 223.503906 251.992188 236.175781 252.523438 C 235.695312 239.851562 230.371094 228.457031 221.957031 220.042969 C 213.597656 211.679688 202.148438 206.355469 189.476562 205.824219 C 190.007812 218.496094 195.332031 229.945312 203.695312 238.304688 M 238.09375 256.25 C 223.664062 256.25 210.5625 250.394531 201.085938 240.914062 C 191.605469 231.4375 185.75 218.390625 185.75 203.90625 L 185.75 202.042969 L 187.613281 202.042969 C 202.042969 202.042969 215.144531 207.902344 224.621094 217.378906 C 234.101562 226.859375 239.957031 239.902344 239.957031 254.386719 L 239.957031 256.25 Z M 238.09375 256.25 " clip-rule="nonzero"/></clipPath><linearGradient x1="297.37399" gradientTransform="matrix(0.5325, 0, 0, 0.5325, 54.48746, 54.487459)" y1="277.200008" x2="297.37399" gradientUnits="userSpaceOnUse" y2="378.899998" id="cd9edb0a03"><stop stop-opacity="1" stop-color="rgb(73.655701%, 63.4552%, 37.954712%)" offset="0"/><stop stop-opacity="1" stop-color="rgb(73.51532%, 63.314819%, 37.814331%)" offset="0.0625"/><stop stop-opacity="1" stop-color="rgb(73.236084%, 63.035583%, 37.536621%)" offset="0.125"/><stop stop-opacity="1" stop-color="rgb(72.956848%, 62.757874%, 37.257385%)" offset="0.1875"/><stop stop-opacity="1" stop-color="rgb(72.679138%, 62.478638%, 36.978149%)" offset="0.25"/><stop stop-opacity="1" stop-color="rgb(72.399902%, 62.199402%, 36.700439%)" offset="0.3125"/><stop stop-opacity="1" stop-color="rgb(72.120667%, 61.921692%, 36.421204%)" offset="0.375"/><stop stop-opacity="1" stop-color="rgb(71.842957%, 61.642456%, 36.141968%)" offset="0.4375"/><stop stop-opacity="1" stop-color="rgb(71.563721%, 61.36322%, 35.862732%)" offset="0.5"/><stop stop-opacity="1" stop-color="rgb(71.284485%, 61.083984%, 35.585022%)" offset="0.5625"/><stop stop-opacity="1" stop-color="rgb(71.005249%, 60.806274%, 35.305786%)" offset="0.625"/><stop stop-opacity="1" stop-color="rgb(70.727539%, 60.527039%, 35.02655%)" offset="0.6875"/><stop stop-opacity="1" stop-color="rgb(70.448303%, 60.247803%, 34.74884%)" offset="0.75"/><stop stop-opacity="1" stop-color="rgb(70.169067%, 59.970093%, 34.469604%)" offset="0.8125"/><stop stop-opacity="1" stop-color="rgb(69.891357%, 59.690857%, 34.190369%)" offset="0.875"/><stop stop-opacity="1" stop-color="rgb(69.612122%, 59.411621%, 33.911133%)" offset="0.9375"/><stop stop-opacity="1" stop-color="rgb(69.332886%, 59.132385%, 33.633423%)" offset="1"/></linearGradient><clipPath id="d50bd7212c"><path d="M 135.269531 202.097656 L 189.421875 202.097656 L 189.421875 256.304688 L 135.269531 256.304688 Z M 135.269531 202.097656 " clip-rule="nonzero"/></clipPath><clipPath id="96f1c19429"><path d="M 174.140625 240.96875 C 164.660156 250.449219 151.617188 256.304688 137.132812 256.304688 L 135.269531 256.304688 L 135.269531 254.441406 C 135.269531 240.011719 141.125 226.910156 150.605469 217.433594 C 160.082031 207.953125 173.128906 202.097656 187.613281 202.097656 L 189.476562 202.097656 L 189.476562 203.960938 C 189.476562 218.390625 183.617188 231.492188 174.140625 240.96875 M 139.046875 252.523438 C 151.722656 252.046875 163.117188 246.71875 171.53125 238.304688 C 179.890625 229.945312 185.214844 218.496094 185.75 205.824219 C 173.074219 206.304688 161.679688 211.628906 153.265625 220.042969 C 144.851562 228.457031 139.527344 239.851562 139.046875 252.523438 Z M 139.046875 252.523438 " clip-rule="nonzero"/></clipPath><linearGradient x1="202.619" gradientTransform="matrix(0.5325, 0, 0, 0.5325, 54.48746, 54.487459)" y1="277.200008" x2="202.619" gradientUnits="userSpaceOnUse" y2="378.999998" id="758ce96fb0"><stop stop-opacity="1" stop-color="rgb(73.655701%, 63.4552%, 37.954712%)" offset="0"/><stop stop-opacity="1" stop-color="rgb(73.51532%, 63.314819%, 37.814331%)" offset="0.0625"/><stop stop-opacity="1" stop-color="rgb(73.236084%, 63.035583%, 37.535095%)" offset="0.125"/><stop stop-opacity="1" stop-color="rgb(72.956848%, 62.756348%, 37.257385%)" offset="0.1875"/><stop stop-opacity="1" stop-color="rgb(72.677612%, 62.477112%, 36.978149%)" offset="0.25"/><stop stop-opacity="1" stop-color="rgb(72.398376%, 62.197876%, 36.698914%)" offset="0.3125"/><stop stop-opacity="1" stop-color="rgb(72.119141%, 61.920166%, 36.419678%)" offset="0.375"/><stop stop-opacity="1" stop-color="rgb(71.839905%, 61.64093%, 36.140442%)" offset="0.4375"/><stop stop-opacity="1" stop-color="rgb(71.560669%, 61.361694%, 35.861206%)" offset="0.5"/><stop stop-opacity="1" stop-color="rgb(71.282959%, 61.082458%, 35.58197%)" offset="0.5625"/><stop stop-opacity="1" stop-color="rgb(71.003723%, 60.803223%, 35.302734%)" offset="0.625"/><stop stop-opacity="1" stop-color="rgb(70.724487%, 60.523987%, 35.023499%)" offset="0.6875"/><stop stop-opacity="1" stop-color="rgb(70.445251%, 60.244751%, 34.744263%)" offset="0.75"/><stop stop-opacity="1" stop-color="rgb(70.166016%, 59.965515%, 34.466553%)" offset="0.8125"/><stop stop-opacity="1" stop-color="rgb(69.88678%, 59.686279%, 34.187317%)" offset="0.875"/><stop stop-opacity="1" stop-color="rgb(69.607544%, 59.407043%, 33.908081%)" offset="0.9375"/><stop stop-opacity="1" stop-color="rgb(69.328308%, 59.129333%, 33.628845%)" offset="1"/></linearGradient><clipPath id="5d6a0af65f"><path d="M 185.75 187.613281 L 189.476562 187.613281 L 189.476562 248.691406 L 185.75 248.691406 Z M 185.75 187.613281 " clip-rule="nonzero"/></clipPath><linearGradient x1="249.99699" gradientTransform="matrix(0.5325, 0, 0, 0.5325, 54.48746, 54.487459)" y1="249.999998" x2="249.99699" gradientUnits="userSpaceOnUse" y2="364.700011" id="57c4b7616e"><stop stop-opacity="1" stop-color="rgb(74.847412%, 64.648438%, 39.147949%)" offset="0"/><stop stop-opacity="1" stop-color="rgb(74.690247%, 64.491272%, 38.990784%)" offset="0.0625"/><stop stop-opacity="1" stop-color="rgb(74.375916%, 64.176941%, 38.676453%)" offset="0.125"/><stop stop-opacity="1" stop-color="rgb(74.061584%, 63.86261%, 38.362122%)" offset="0.1875"/><stop stop-opacity="1" stop-color="rgb(73.747253%, 63.546753%, 38.047791%)" offset="0.25"/><stop stop-opacity="1" stop-color="rgb(73.432922%, 63.232422%, 37.733459%)" offset="0.3125"/><stop stop-opacity="1" stop-color="rgb(73.118591%, 62.918091%, 37.419128%)" offset="0.375"/><stop stop-opacity="1" stop-color="rgb(72.80426%, 62.60376%, 37.104797%)" offset="0.4375"/><stop stop-opacity="1" stop-color="rgb(72.489929%, 62.289429%, 36.790466%)" offset="0.5"/><stop stop-opacity="1" stop-color="rgb(72.175598%, 61.975098%, 36.474609%)" offset="0.5625"/><stop stop-opacity="1" stop-color="rgb(71.861267%, 61.660767%, 36.160278%)" offset="0.625"/><stop stop-opacity="1" stop-color="rgb(71.546936%, 61.346436%, 35.845947%)" offset="0.6875"/><stop stop-opacity="1" stop-color="rgb(71.232605%, 61.032104%, 35.531616%)" offset="0.75"/><stop stop-opacity="1" stop-color="rgb(70.918274%, 60.717773%, 35.217285%)" offset="0.8125"/><stop stop-opacity="1" stop-color="rgb(70.602417%, 60.403442%, 34.902954%)" offset="0.875"/><stop stop-opacity="1" stop-color="rgb(70.288086%, 60.089111%, 34.588623%)" offset="0.9375"/><stop stop-opacity="1" stop-color="rgb(69.973755%, 59.77478%, 34.274292%)" offset="1"/></linearGradient><clipPath id="ecfae37249"><path d="M 170.945312 244.109375 L 204.226562 244.109375 L 204.226562 320.738281 L 170.945312 320.738281 Z M 170.945312 244.109375 " clip-rule="nonzero"/></clipPath><clipPath id="ce78ff646f"><path d="M 187.613281 315.414062 C 196.238281 306.09375 200.550781 294.273438 200.550781 282.398438 C 200.550781 270.574219 196.238281 258.703125 187.613281 249.382812 C 178.984375 258.703125 174.671875 270.523438 174.671875 282.398438 C 174.671875 294.273438 178.984375 306.148438 187.613281 315.414062 M 188.945312 319.40625 L 187.613281 320.738281 L 186.28125 319.40625 C 176.058594 309.183594 170.945312 295.816406 170.945312 282.398438 C 170.945312 269.03125 176.058594 255.613281 186.28125 245.390625 L 187.613281 244.058594 L 188.945312 245.390625 C 199.167969 255.613281 204.28125 268.976562 204.28125 282.398438 C 204.226562 295.816406 199.167969 309.183594 188.945312 319.40625 Z M 188.945312 319.40625 " clip-rule="nonzero"/></clipPath><linearGradient x1="249.99699" gradientTransform="matrix(0.5325, 0, 0, 0.5325, 54.48746, 54.487459)" y1="356.100009" x2="249.99699" gradientUnits="userSpaceOnUse" y2="500.000002" id="ada9ef21b3"><stop stop-opacity="1" stop-color="rgb(70.195007%, 59.994507%, 34.494019%)" offset="0"/><stop stop-opacity="1" stop-color="rgb(70.095825%, 59.895325%, 34.394836%)" offset="0.03125"/><stop stop-opacity="1" stop-color="rgb(69.897461%, 59.698486%, 34.197998%)" offset="0.0625"/><stop stop-opacity="1" stop-color="rgb(69.700623%, 59.500122%, 34.00116%)" offset="0.09375"/><stop stop-opacity="1" stop-color="rgb(69.503784%, 59.303284%, 33.802795%)" offset="0.125"/><stop stop-opacity="1" stop-color="rgb(69.30542%, 59.106445%, 33.605957%)" offset="0.15625"/><stop stop-opacity="1" stop-color="rgb(69.108582%, 58.909607%, 33.409119%)" offset="0.1875"/><stop stop-opacity="1" stop-color="rgb(68.911743%, 58.711243%, 33.21228%)" offset="0.21875"/><stop stop-opacity="1" stop-color="rgb(68.714905%, 58.514404%, 33.013916%)" offset="0.25"/><stop stop-opacity="1" stop-color="rgb(68.516541%, 58.317566%, 32.817078%)" offset="0.28125"/><stop stop-opacity="1" stop-color="rgb(68.319702%, 58.119202%, 32.620239%)" offset="0.3125"/><stop stop-opacity="1" stop-color="rgb(68.122864%, 57.922363%, 32.423401%)" offset="0.34375"/><stop stop-opacity="1" stop-color="rgb(67.926025%, 57.725525%, 32.225037%)" offset="0.375"/><stop stop-opacity="1" stop-color="rgb(67.727661%, 57.528687%, 32.028198%)" offset="0.40625"/><stop stop-opacity="1" stop-color="rgb(67.530823%, 57.330322%, 31.83136%)" offset="0.4375"/><stop stop-opacity="1" stop-color="rgb(67.333984%, 57.133484%, 31.632996%)" offset="0.46875"/><stop stop-opacity="1" stop-color="rgb(67.137146%, 56.936646%, 31.436157%)" offset="0.5"/><stop stop-opacity="1" stop-color="rgb(66.938782%, 56.739807%, 31.239319%)" offset="0.53125"/><stop stop-opacity="1" stop-color="rgb(66.741943%, 56.541443%, 31.04248%)" offset="0.5625"/><stop stop-opacity="1" stop-color="rgb(66.545105%, 56.344604%, 30.844116%)" offset="0.59375"/><stop stop-opacity="1" stop-color="rgb(66.348267%, 56.147766%, 30.647278%)" offset="0.625"/><stop stop-opacity="1" stop-color="rgb(66.073608%, 55.874634%, 30.374146%)" offset="0.75"/><stop stop-opacity="1" stop-color="rgb(65.899658%, 55.699158%, 30.198669%)" offset="1"/></linearGradient><clipPath id="a2e9ff2ba7"><path d="M 139.742188 238 L 176.429688 238 L 176.429688 298.90625 L 139.742188 298.90625 Z M 139.742188 238 " clip-rule="nonzero"/></clipPath><clipPath id="888bbf45da"><path d="M 161.945312 276.378906 C 160.242188 274.675781 158.164062 273.664062 155.980469 273.34375 C 154.808594 274.304688 153.746094 275.261719 152.785156 276.273438 L 152.679688 276.378906 C 151.402344 277.65625 150.761719 279.308594 150.761719 281.011719 C 150.761719 282.664062 151.402344 284.367188 152.679688 285.644531 C 153.957031 286.921875 155.609375 287.5625 157.3125 287.5625 C 158.964844 287.5625 160.667969 286.921875 161.945312 285.644531 C 163.222656 284.367188 163.863281 282.71875 163.863281 281.011719 C 163.863281 279.308594 163.222656 277.605469 161.945312 276.378906 M 164.554688 294.324219 C 161.734375 297.148438 158.003906 298.585938 154.277344 298.585938 C 150.550781 298.585938 146.824219 297.148438 144 294.324219 C 141.179688 291.503906 139.742188 287.777344 139.742188 284.046875 C 139.742188 280.320312 141.179688 276.59375 144 273.769531 C 146.824219 270.949219 150.550781 269.511719 154.277344 269.511719 L 154.863281 269.511719 L 156.25 268.5 C 159.976562 265.730469 164.128906 262.640625 167.429688 256.730469 C 172.753906 247.359375 172.488281 238.148438 172.488281 238.148438 L 176.21875 238.09375 C 176.21875 238.148438 176.484375 248.316406 170.679688 258.59375 C 167.324219 264.503906 163.382812 267.808594 159.710938 270.574219 C 161.464844 271.269531 163.171875 272.332031 164.609375 273.824219 C 166.632812 275.847656 167.589844 278.457031 167.589844 281.066406 C 167.589844 283.675781 166.578125 286.339844 164.609375 288.308594 C 162.585938 290.332031 159.976562 291.289062 157.367188 291.289062 C 154.757812 291.289062 152.09375 290.277344 150.125 288.308594 C 148.101562 286.285156 147.140625 283.675781 147.140625 281.066406 C 147.140625 278.671875 147.996094 276.273438 149.644531 274.355469 C 148.582031 274.890625 147.570312 275.582031 146.664062 276.488281 C 144.53125 278.617188 143.46875 281.386719 143.46875 284.15625 C 143.46875 286.921875 144.53125 289.691406 146.664062 291.824219 C 155.078125 300.128906 159.285156 289 164.554688 294.324219 Z M 164.554688 294.324219 " clip-rule="nonzero"/></clipPath><linearGradient x1="194.582" gradientTransform="matrix(0.5325, 0, 0, 0.5325, 54.48746, 54.487459)" y1="344.800004" x2="194.582" gradientUnits="userSpaceOnUse" y2="459.000024" id="f47d140697"><stop stop-opacity="1" stop-color="rgb(70.689392%, 60.490417%, 34.989929%)" offset="0"/><stop stop-opacity="1" stop-color="rgb(70.532227%, 60.333252%, 34.832764%)" offset="0.0625"/><stop stop-opacity="1" stop-color="rgb(70.219421%, 60.020447%, 34.519958%)" offset="0.125"/><stop stop-opacity="1" stop-color="rgb(69.906616%, 59.706116%, 34.207153%)" offset="0.1875"/><stop stop-opacity="1" stop-color="rgb(69.593811%, 59.393311%, 33.892822%)" offset="0.25"/><stop stop-opacity="1" stop-color="rgb(69.281006%, 59.080505%, 33.580017%)" offset="0.3125"/><stop stop-opacity="1" stop-color="rgb(68.968201%, 58.7677%, 33.267212%)" offset="0.375"/><stop stop-opacity="1" stop-color="rgb(68.65387%, 58.454895%, 32.954407%)" offset="0.4375"/><stop stop-opacity="1" stop-color="rgb(68.341064%, 58.140564%, 32.641602%)" offset="0.5"/><stop stop-opacity="1" stop-color="rgb(68.028259%, 57.827759%, 32.328796%)" offset="0.5625"/><stop stop-opacity="1" stop-color="rgb(67.715454%, 57.514954%, 32.014465%)" offset="0.625"/><stop stop-opacity="1" stop-color="rgb(67.402649%, 57.202148%, 31.70166%)" offset="0.6875"/><stop stop-opacity="1" stop-color="rgb(67.088318%, 56.889343%, 31.388855%)" offset="0.75"/><stop stop-opacity="1" stop-color="rgb(66.775513%, 56.576538%, 31.07605%)" offset="0.8125"/><stop stop-opacity="1" stop-color="rgb(66.462708%, 56.262207%, 30.763245%)" offset="0.875"/><stop stop-opacity="1" stop-color="rgb(66.149902%, 55.949402%, 30.450439%)" offset="0.9375"/><stop stop-opacity="1" stop-color="rgb(65.94696%, 55.74646%, 30.245972%)" offset="1"/></linearGradient><clipPath id="442c17fc93"><path d="M 199 237.988281 L 235.539062 237.988281 L 235.539062 298.90625 L 199 298.90625 Z M 199 237.988281 " clip-rule="nonzero"/></clipPath><clipPath id="350770a1ff"><path d="M 219.242188 273.292969 C 217.058594 273.609375 214.984375 274.621094 213.277344 276.328125 C 212 277.605469 211.363281 279.253906 211.363281 280.960938 C 211.363281 282.609375 212 284.3125 213.277344 285.59375 C 214.558594 286.871094 216.207031 287.507812 217.910156 287.507812 C 219.5625 287.507812 221.265625 286.871094 222.542969 285.59375 C 223.824219 284.316406 224.460938 282.664062 224.460938 280.960938 C 224.460938 279.308594 223.824219 277.605469 222.542969 276.328125 L 222.4375 276.21875 C 221.480469 275.207031 220.414062 274.25 219.242188 273.292969 M 228.613281 291.664062 C 230.746094 289.53125 231.808594 286.765625 231.808594 283.996094 C 231.808594 281.226562 230.746094 278.457031 228.613281 276.328125 C 227.710938 275.421875 226.699219 274.730469 225.632812 274.195312 C 227.285156 276.113281 228.136719 278.511719 228.136719 280.90625 C 228.136719 283.515625 227.125 286.179688 225.152344 288.148438 C 223.128906 290.171875 220.519531 291.128906 217.910156 291.128906 C 215.300781 291.128906 212.691406 290.117188 210.667969 288.148438 C 208.644531 286.125 207.6875 283.515625 207.6875 280.90625 C 207.6875 278.296875 208.699219 275.632812 210.667969 273.664062 C 212.109375 272.226562 213.757812 271.160156 215.570312 270.417969 C 211.894531 267.648438 207.953125 264.34375 204.597656 258.433594 C 198.796875 248.15625 199.0625 237.988281 199.0625 237.933594 L 202.789062 237.988281 C 202.789062 237.988281 202.574219 247.199219 207.847656 256.570312 C 211.203125 262.480469 215.355469 265.570312 219.03125 268.339844 L 220.414062 269.351562 L 221 269.351562 C 224.726562 269.351562 228.457031 270.789062 231.277344 273.609375 C 234.101562 276.433594 235.539062 280.160156 235.539062 283.886719 C 235.539062 287.617188 234.101562 291.34375 231.277344 294.164062 C 228.457031 296.988281 224.726562 298.425781 221 298.425781 C 217.273438 298.425781 213.546875 296.988281 210.722656 294.164062 C 215.941406 289 220.148438 300.128906 228.613281 291.664062 Z M 228.613281 291.664062 " clip-rule="nonzero"/></clipPath><linearGradient x1="305.41299" gradientTransform="matrix(0.5325, 0, 0, 0.5325, 54.48746, 54.487459)" y1="344.600009" x2="305.41299" gradientUnits="userSpaceOnUse" y2="459.000024" id="6dea858e47"><stop stop-opacity="1" stop-color="rgb(70.698547%, 60.498047%, 34.999084%)" offset="0"/><stop stop-opacity="1" stop-color="rgb(70.541382%, 60.340881%, 34.841919%)" offset="0.0625"/><stop stop-opacity="1" stop-color="rgb(70.228577%, 60.028076%, 34.527588%)" offset="0.125"/><stop stop-opacity="1" stop-color="rgb(69.914246%, 59.713745%, 34.214783%)" offset="0.1875"/><stop stop-opacity="1" stop-color="rgb(69.60144%, 59.40094%, 33.900452%)" offset="0.25"/><stop stop-opacity="1" stop-color="rgb(69.287109%, 59.086609%, 33.587646%)" offset="0.3125"/><stop stop-opacity="1" stop-color="rgb(68.972778%, 58.773804%, 33.273315%)" offset="0.375"/><stop stop-opacity="1" stop-color="rgb(68.659973%, 58.459473%, 32.96051%)" offset="0.4375"/><stop stop-opacity="1" stop-color="rgb(68.345642%, 58.146667%, 32.646179%)" offset="0.5"/><stop stop-opacity="1" stop-color="rgb(68.032837%, 57.832336%, 32.333374%)" offset="0.5625"/><stop stop-opacity="1" stop-color="rgb(67.718506%, 57.519531%, 32.019043%)" offset="0.625"/><stop stop-opacity="1" stop-color="rgb(67.405701%, 57.2052%, 31.704712%)" offset="0.6875"/><stop stop-opacity="1" stop-color="rgb(67.09137%, 56.892395%, 31.391907%)" offset="0.75"/><stop stop-opacity="1" stop-color="rgb(66.778564%, 56.578064%, 31.077576%)" offset="0.8125"/><stop stop-opacity="1" stop-color="rgb(66.464233%, 56.265259%, 30.764771%)" offset="0.875"/><stop stop-opacity="1" stop-color="rgb(66.151428%, 55.950928%, 30.450439%)" offset="0.9375"/><stop stop-opacity="1" stop-color="rgb(65.94696%, 55.74646%, 30.245972%)" offset="1"/></linearGradient><clipPath id="4adb4fbc50"><path d="M 118.972656 185.75 L 173.183594 185.75 L 173.183594 239.902344 L 118.972656 239.902344 Z M 118.972656 185.75 " clip-rule="nonzero"/></clipPath><clipPath id="6f29889b3b"><path d="M 136.917969 203.695312 C 128.558594 212.054688 123.234375 223.503906 122.699219 236.175781 C 135.375 235.695312 146.769531 230.371094 155.183594 221.957031 C 163.542969 213.597656 168.867188 202.148438 169.402344 189.476562 C 156.726562 190.007812 145.277344 195.332031 136.917969 203.695312 M 118.972656 238.09375 C 118.972656 223.664062 124.832031 210.5625 134.308594 201.085938 C 143.789062 191.605469 156.832031 185.75 171.316406 185.75 L 173.183594 185.75 L 173.183594 187.613281 C 173.183594 202.042969 167.324219 215.144531 157.84375 224.621094 C 148.367188 234.101562 135.320312 239.957031 120.835938 239.957031 L 118.972656 239.957031 Z M 118.972656 238.09375 " clip-rule="nonzero"/></clipPath><linearGradient x1="171.927" gradientTransform="matrix(0.5325, 0, 0, 0.5325, 54.48746, 54.487459)" y1="246.499998" x2="171.927" gradientUnits="userSpaceOnUse" y2="348.200011" id="af08cff659"><stop stop-opacity="1" stop-color="rgb(75.001526%, 64.801025%, 39.302063%)" offset="0"/><stop stop-opacity="1" stop-color="rgb(74.861145%, 64.66217%, 39.161682%)" offset="0.0625"/><stop stop-opacity="1" stop-color="rgb(74.583435%, 64.382935%, 38.882446%)" offset="0.125"/><stop stop-opacity="1" stop-color="rgb(74.304199%, 64.103699%, 38.604736%)" offset="0.1875"/><stop stop-opacity="1" stop-color="rgb(74.024963%, 63.824463%, 38.3255%)" offset="0.25"/><stop stop-opacity="1" stop-color="rgb(73.745728%, 63.546753%, 38.046265%)" offset="0.3125"/><stop stop-opacity="1" stop-color="rgb(73.468018%, 63.267517%, 37.767029%)" offset="0.375"/><stop stop-opacity="1" stop-color="rgb(73.188782%, 62.988281%, 37.489319%)" offset="0.4375"/><stop stop-opacity="1" stop-color="rgb(72.909546%, 62.710571%, 37.210083%)" offset="0.5"/><stop stop-opacity="1" stop-color="rgb(72.631836%, 62.431335%, 36.930847%)" offset="0.5625"/><stop stop-opacity="1" stop-color="rgb(72.3526%, 62.1521%, 36.653137%)" offset="0.625"/><stop stop-opacity="1" stop-color="rgb(72.073364%, 61.87439%, 36.373901%)" offset="0.6875"/><stop stop-opacity="1" stop-color="rgb(71.794128%, 61.595154%, 36.094666%)" offset="0.75"/><stop stop-opacity="1" stop-color="rgb(71.516418%, 61.315918%, 35.81543%)" offset="0.8125"/><stop stop-opacity="1" stop-color="rgb(71.237183%, 61.036682%, 35.53772%)" offset="0.875"/><stop stop-opacity="1" stop-color="rgb(70.957947%, 60.758972%, 35.258484%)" offset="0.9375"/><stop stop-opacity="1" stop-color="rgb(70.680237%, 60.479736%, 34.979248%)" offset="1"/></linearGradient><clipPath id="e2afb20168"><path d="M 118.972656 135.269531 L 173.183594 135.269531 L 173.183594 189.421875 L 118.972656 189.421875 Z M 118.972656 135.269531 " clip-rule="nonzero"/></clipPath><clipPath id="6854aaf8e5"><path d="M 134.257812 174.140625 C 124.777344 164.660156 118.921875 151.617188 118.921875 137.132812 L 118.921875 135.269531 L 120.785156 135.269531 C 135.214844 135.269531 148.3125 141.125 157.792969 150.605469 C 167.269531 160.082031 173.128906 173.128906 173.128906 187.613281 L 173.128906 189.476562 L 171.265625 189.476562 C 156.832031 189.476562 143.734375 183.617188 134.257812 174.140625 M 122.699219 139.046875 C 123.179688 151.722656 128.503906 163.117188 136.917969 171.53125 C 145.277344 179.890625 156.726562 185.214844 169.402344 185.75 C 168.921875 173.074219 163.597656 161.679688 155.183594 153.265625 C 146.769531 144.851562 135.375 139.527344 122.699219 139.046875 Z M 122.699219 139.046875 " clip-rule="nonzero"/></clipPath><linearGradient x1="171.927" gradientTransform="matrix(0.5325, 0, 0, 0.5325, 54.48746, 54.487459)" y1="151.700008" x2="171.927" gradientUnits="userSpaceOnUse" y2="253.399992" id="b8ee6f88ae"><stop stop-opacity="1" stop-color="rgb(79.159546%, 68.959045%, 43.460083%)" offset="0"/><stop stop-opacity="1" stop-color="rgb(79.019165%, 68.82019%, 43.319702%)" offset="0.0625"/><stop stop-opacity="1" stop-color="rgb(78.741455%, 68.540955%, 43.040466%)" offset="0.125"/><stop stop-opacity="1" stop-color="rgb(78.462219%, 68.261719%, 42.762756%)" offset="0.1875"/><stop stop-opacity="1" stop-color="rgb(78.182983%, 67.984009%, 42.483521%)" offset="0.25"/><stop stop-opacity="1" stop-color="rgb(77.905273%, 67.704773%, 42.204285%)" offset="0.3125"/><stop stop-opacity="1" stop-color="rgb(77.626038%, 67.425537%, 41.925049%)" offset="0.375"/><stop stop-opacity="1" stop-color="rgb(77.346802%, 67.146301%, 41.647339%)" offset="0.4375"/><stop stop-opacity="1" stop-color="rgb(77.067566%, 66.868591%, 41.368103%)" offset="0.5"/><stop stop-opacity="1" stop-color="rgb(76.789856%, 66.589355%, 41.088867%)" offset="0.5625"/><stop stop-opacity="1" stop-color="rgb(76.51062%, 66.31012%, 40.811157%)" offset="0.625"/><stop stop-opacity="1" stop-color="rgb(76.231384%, 66.03241%, 40.531921%)" offset="0.6875"/><stop stop-opacity="1" stop-color="rgb(75.953674%, 65.753174%, 40.252686%)" offset="0.75"/><stop stop-opacity="1" stop-color="rgb(75.674438%, 65.473938%, 39.97345%)" offset="0.8125"/><stop stop-opacity="1" stop-color="rgb(75.395203%, 65.194702%, 39.69574%)" offset="0.875"/><stop stop-opacity="1" stop-color="rgb(75.115967%, 64.916992%, 39.416504%)" offset="0.9375"/><stop stop-opacity="1" stop-color="rgb(74.838257%, 64.637756%, 39.137268%)" offset="1"/></linearGradient><clipPath id="a887549661"><path d="M 126.695312 185.75 L 187.613281 185.75 L 187.613281 189.476562 L 126.695312 189.476562 Z M 126.695312 185.75 " clip-rule="nonzero"/></clipPath><linearGradient x1="192.799" gradientTransform="matrix(0.5325, 0, 0, 0.5325, 54.48746, 54.487459)" y1="246.499998" x2="192.799" gradientUnits="userSpaceOnUse" y2="253.499991" id="0e2a441fc3"><stop stop-opacity="1" stop-color="rgb(75.001526%, 64.801025%, 39.302063%)" offset="0"/><stop stop-opacity="1" stop-color="rgb(74.923706%, 64.724731%, 39.224243%)" offset="0.5"/><stop stop-opacity="1" stop-color="rgb(74.771118%, 64.570618%, 39.070129%)" offset="1"/></linearGradient><clipPath id="31105cc372"><path d="M 54.488281 171 L 131.113281 171 L 131.113281 204.28125 L 54.488281 204.28125 Z M 54.488281 171 " clip-rule="nonzero"/></clipPath><clipPath id="cd412a3386"><path d="M 59.8125 187.613281 C 69.132812 196.238281 80.953125 200.550781 92.828125 200.550781 C 104.648438 200.550781 116.523438 196.238281 125.84375 187.613281 C 116.523438 178.984375 104.703125 174.671875 92.828125 174.671875 C 80.953125 174.671875 69.078125 178.984375 59.8125 187.613281 M 55.820312 188.945312 L 54.488281 187.613281 L 55.820312 186.28125 C 66.042969 176.058594 79.410156 170.945312 92.828125 170.945312 C 106.191406 170.945312 119.613281 176.058594 129.835938 186.28125 L 131.167969 187.613281 L 129.835938 188.945312 C 119.613281 199.167969 106.246094 204.28125 92.828125 204.28125 C 79.410156 204.28125 66.042969 199.167969 55.820312 188.945312 Z M 55.820312 188.945312 " clip-rule="nonzero"/></clipPath><linearGradient x1="71.945999" gradientTransform="matrix(0.5325, 0, 0, 0.5325, 54.48746, 54.487459)" y1="218.799997" x2="71.945999" gradientUnits="userSpaceOnUse" y2="281.299978" id="268acb16d4"><stop stop-opacity="1" stop-color="rgb(76.216125%, 66.017151%, 40.516663%)" offset="0"/><stop stop-opacity="1" stop-color="rgb(76.045227%, 65.844727%, 40.344238%)" offset="0.125"/><stop stop-opacity="1" stop-color="rgb(75.701904%, 65.501404%, 40.002441%)" offset="0.25"/><stop stop-opacity="1" stop-color="rgb(75.360107%, 65.159607%, 39.659119%)" offset="0.375"/><stop stop-opacity="1" stop-color="rgb(75.016785%, 64.816284%, 39.317322%)" offset="0.5"/><stop stop-opacity="1" stop-color="rgb(74.673462%, 64.474487%, 38.973999%)" offset="0.625"/><stop stop-opacity="1" stop-color="rgb(74.331665%, 64.131165%, 38.630676%)" offset="0.75"/><stop stop-opacity="1" stop-color="rgb(73.988342%, 63.789368%, 38.288879%)" offset="0.875"/><stop stop-opacity="1" stop-color="rgb(73.646545%, 63.446045%, 37.945557%)" offset="1"/></linearGradient><clipPath id="4e0f52ebc1"><path d="M 76.320312 139.742188 L 137.238281 139.742188 L 137.238281 176.429688 L 76.320312 176.429688 Z M 76.320312 139.742188 " clip-rule="nonzero"/></clipPath><clipPath id="5a9579474f"><path d="M 98.84375 161.945312 C 100.546875 160.242188 101.558594 158.164062 101.878906 155.980469 C 100.921875 154.808594 99.964844 153.746094 98.953125 152.785156 L 98.84375 152.679688 C 97.566406 151.402344 95.914062 150.761719 94.210938 150.761719 C 92.5625 150.761719 90.855469 151.402344 89.578125 152.679688 C 88.300781 153.957031 87.664062 155.609375 87.664062 157.3125 C 87.664062 158.964844 88.300781 160.667969 89.578125 161.945312 C 90.855469 163.222656 92.507812 163.863281 94.210938 163.863281 C 95.914062 163.863281 97.621094 163.222656 98.84375 161.945312 M 80.898438 164.554688 C 78.078125 161.734375 76.640625 158.003906 76.640625 154.277344 C 76.640625 150.550781 78.078125 146.824219 80.898438 144 C 83.722656 141.179688 87.449219 139.742188 91.175781 139.742188 C 94.902344 139.742188 98.632812 141.179688 101.453125 144 C 104.277344 146.824219 105.714844 150.550781 105.714844 154.277344 L 105.714844 154.863281 L 106.726562 156.25 C 109.496094 159.976562 112.582031 164.128906 118.492188 167.429688 C 127.867188 172.753906 137.078125 172.488281 137.078125 172.488281 L 137.132812 176.21875 C 137.078125 176.21875 126.90625 176.484375 116.628906 170.679688 C 110.667969 167.324219 107.417969 163.382812 104.648438 159.710938 C 103.957031 161.464844 102.890625 163.171875 101.402344 164.609375 C 99.378906 166.632812 96.769531 167.589844 94.160156 167.589844 C 91.550781 167.589844 88.886719 166.578125 86.917969 164.609375 C 84.894531 162.585938 83.933594 159.976562 83.933594 157.367188 C 83.933594 154.757812 84.945312 152.09375 86.917969 150.125 C 88.941406 148.101562 91.550781 147.140625 94.160156 147.140625 C 96.554688 147.140625 98.953125 147.996094 100.867188 149.644531 C 100.335938 148.582031 99.644531 147.570312 98.738281 146.664062 C 96.609375 144.53125 93.839844 143.46875 91.070312 143.46875 C 88.300781 143.46875 85.53125 144.53125 83.402344 146.664062 C 75.09375 155.078125 86.222656 159.285156 80.898438 164.554688 Z M 80.898438 164.554688 " clip-rule="nonzero"/></clipPath><linearGradient x1="97.038002" gradientTransform="matrix(0.5325, 0, 0, 0.5325, 54.48746, 54.487459)" y1="160.100003" x2="97.038002" gradientUnits="userSpaceOnUse" y2="228.999993" id="cd1914d4a7"><stop stop-opacity="1" stop-color="rgb(78.791809%, 68.591309%, 43.09082%)" offset="0"/><stop stop-opacity="1" stop-color="rgb(78.6026%, 68.4021%, 42.901611%)" offset="0.125"/><stop stop-opacity="1" stop-color="rgb(78.224182%, 68.023682%, 42.524719%)" offset="0.25"/><stop stop-opacity="1" stop-color="rgb(77.845764%, 67.64679%, 42.146301%)" offset="0.375"/><stop stop-opacity="1" stop-color="rgb(77.468872%, 67.268372%, 41.769409%)" offset="0.5"/><stop stop-opacity="1" stop-color="rgb(77.090454%, 66.891479%, 41.390991%)" offset="0.625"/><stop stop-opacity="1" stop-color="rgb(76.713562%, 66.513062%, 41.012573%)" offset="0.75"/><stop stop-opacity="1" stop-color="rgb(76.335144%, 66.136169%, 40.635681%)" offset="0.875"/><stop stop-opacity="1" stop-color="rgb(75.958252%, 65.757751%, 40.257263%)" offset="1"/></linearGradient><clipPath id="0953d013ed"><path d="M 76.320312 199 L 137.238281 199 L 137.238281 235.539062 L 76.320312 235.539062 Z M 76.320312 199 " clip-rule="nonzero"/></clipPath><clipPath id="40b1c91d53"><path d="M 101.933594 219.242188 C 101.613281 217.058594 100.601562 214.984375 98.898438 213.277344 C 97.621094 212 95.96875 211.363281 94.265625 211.363281 C 92.613281 211.363281 90.910156 212 89.632812 213.277344 C 88.355469 214.558594 87.714844 216.207031 87.714844 217.910156 C 87.714844 219.5625 88.355469 221.265625 89.632812 222.542969 C 90.910156 223.824219 92.5625 224.460938 94.265625 224.460938 C 95.914062 224.460938 97.621094 223.824219 98.898438 222.542969 L 99.003906 222.4375 C 100.015625 221.53125 100.976562 220.414062 101.933594 219.242188 M 83.5625 228.613281 C 85.691406 230.746094 88.460938 231.808594 91.230469 231.808594 C 94 231.808594 96.769531 230.746094 98.898438 228.613281 C 99.804688 227.710938 100.496094 226.699219 101.027344 225.632812 C 99.109375 227.285156 96.714844 228.136719 94.320312 228.136719 C 91.710938 228.136719 89.046875 227.125 87.078125 225.152344 C 85.054688 223.128906 84.09375 220.519531 84.09375 217.910156 C 84.09375 215.300781 85.105469 212.691406 87.078125 210.667969 C 89.101562 208.644531 91.710938 207.6875 94.320312 207.6875 C 96.925781 207.6875 99.589844 208.699219 101.558594 210.667969 C 103 212.109375 104.0625 213.757812 104.808594 215.570312 C 107.578125 211.894531 110.878906 207.953125 116.789062 204.597656 C 127.066406 198.796875 137.238281 199.0625 137.292969 199.0625 L 137.238281 202.789062 C 137.238281 202.789062 128.027344 202.574219 118.652344 207.847656 C 112.742188 211.203125 109.65625 215.355469 106.886719 219.03125 L 105.875 220.414062 L 105.875 221 C 105.875 224.726562 104.4375 228.457031 101.613281 231.277344 C 98.792969 234.101562 95.0625 235.539062 91.335938 235.539062 C 87.609375 235.539062 83.882812 234.101562 81.058594 231.277344 C 78.238281 228.457031 76.800781 224.726562 76.800781 221 C 76.800781 217.273438 78.238281 213.546875 81.058594 210.722656 C 86.222656 215.941406 75.09375 220.148438 83.5625 228.613281 Z M 83.5625 228.613281 " clip-rule="nonzero"/></clipPath><linearGradient x1="97.038002" gradientTransform="matrix(0.5325, 0, 0, 0.5325, 54.48746, 54.487459)" y1="270.999994" x2="97.038002" gradientUnits="userSpaceOnUse" y2="339.999995" id="1d811b389c"><stop stop-opacity="1" stop-color="rgb(73.927307%, 63.726807%, 38.226318%)" offset="0"/><stop stop-opacity="1" stop-color="rgb(73.738098%, 63.537598%, 38.037109%)" offset="0.125"/><stop stop-opacity="1" stop-color="rgb(73.35968%, 63.15918%, 37.658691%)" offset="0.25"/><stop stop-opacity="1" stop-color="rgb(72.981262%, 62.780762%, 37.281799%)" offset="0.375"/><stop stop-opacity="1" stop-color="rgb(72.602844%, 62.402344%, 36.903381%)" offset="0.5"/><stop stop-opacity="1" stop-color="rgb(72.224426%, 62.023926%, 36.524963%)" offset="0.625"/><stop stop-opacity="1" stop-color="rgb(71.846008%, 61.645508%, 36.146545%)" offset="0.75"/><stop stop-opacity="1" stop-color="rgb(71.46759%, 61.268616%, 35.768127%)" offset="0.875"/><stop stop-opacity="1" stop-color="rgb(71.089172%, 60.890198%, 35.389709%)" offset="1"/></linearGradient></defs><g clip-path="url(#68dc0995c9)"><g clip-path="url(#ea6a280520)"><path fill="url(#426e05b6cb)" d="M 135.269531 118.972656 L 135.269531 173.183594 L 189.421875 173.183594 L 189.421875 118.972656 Z M 135.269531 118.972656 " fill-rule="nonzero"/></g></g><g clip-path="url(#073ba5d733)"><g clip-path="url(#c6d8ba8be2)"><path fill="url(#f59fabf692)" d="M 185.75 118.972656 L 185.75 173.128906 L 239.902344 173.128906 L 239.902344 118.972656 Z M 185.75 118.972656 " fill-rule="nonzero"/></g></g><g clip-path="url(#e720150b38)"><path fill="url(#ade7286617)" d="M 185.75 126.90625 L 185.75 187.613281 L 189.476562 187.613281 L 189.476562 126.90625 Z M 185.75 126.90625 " fill-rule="nonzero"/></g><g clip-path="url(#269b8c250e)"><g clip-path="url(#2e2799ee17)"><path fill="url(#ff98c8424b)" d="M 170.945312 54.488281 L 170.945312 131.113281 L 204.226562 131.113281 L 204.226562 54.488281 Z M 170.945312 54.488281 " fill-rule="nonzero"/></g></g><g clip-path="url(#a1210090c1)"><g clip-path="url(#6ee1bfe6eb)"><path fill="url(#59a9fbc8d9)" d="M 198.796875 76.320312 L 198.796875 137.132812 L 235.484375 137.132812 L 235.484375 76.320312 Z M 198.796875 76.320312 " fill-rule="nonzero"/></g></g><g clip-path="url(#4566ee81fd)"><g clip-path="url(#24e5ffaedc)"><path fill="url(#f08c074ccd)" d="M 139.742188 76.320312 L 139.742188 137.238281 L 176.429688 137.238281 L 176.429688 76.320312 Z M 139.742188 76.320312 " fill-rule="nonzero"/></g></g><g clip-path="url(#c31f4520d4)"><g clip-path="url(#72af7c82d8)"><path fill="url(#edb2a7a7ed)" d="M 202.097656 135.269531 L 202.097656 189.421875 L 256.25 189.421875 L 256.25 135.269531 Z M 202.097656 135.269531 " fill-rule="nonzero"/></g></g><g clip-path="url(#6390b00a26)"><g clip-path="url(#e9af5028ee)"><path fill="url(#c9367297ac)" d="M 202.097656 185.75 L 202.097656 239.902344 L 256.304688 239.902344 L 256.304688 185.75 Z M 202.097656 185.75 " fill-rule="nonzero"/></g></g><g clip-path="url(#7d9c47d0de)"><path fill="url(#69bf58be27)" d="M 187.613281 185.75 L 187.613281 189.476562 L 247.679688 189.476562 L 247.679688 185.75 Z M 187.613281 185.75 " fill-rule="nonzero"/></g><g clip-path="url(#ebb09a1bb1)"><g clip-path="url(#9608e75d4a)"><path fill="url(#d2ddc515ce)" d="M 244.109375 171 L 244.109375 204.28125 L 320.738281 204.28125 L 320.738281 171 Z M 244.109375 171 " fill-rule="nonzero"/></g></g><g clip-path="url(#7a8e40aa8a)"><g clip-path="url(#b396b0f381)"><path fill="url(#f6c28303e9)" d="M 238.09375 198.796875 L 238.09375 235.484375 L 298.90625 235.484375 L 298.90625 198.796875 Z M 238.09375 198.796875 " fill-rule="nonzero"/></g></g><g clip-path="url(#59194fa7e7)"><g clip-path="url(#37b6d3d487)"><path fill="url(#1462d930cd)" d="M 237.988281 139.742188 L 237.988281 176.429688 L 298.90625 176.429688 L 298.90625 139.742188 Z M 237.988281 139.742188 " fill-rule="nonzero"/></g></g><g clip-path="url(#6844b8fe16)"><g clip-path="url(#2863f4e11d)"><path fill="url(#cd9edb0a03)" d="M 185.75 202.097656 L 185.75 256.25 L 239.902344 256.25 L 239.902344 202.097656 Z M 185.75 202.097656 " fill-rule="nonzero"/></g></g><g clip-path="url(#d50bd7212c)"><g clip-path="url(#96f1c19429)"><path fill="url(#758ce96fb0)" d="M 135.269531 202.097656 L 135.269531 256.304688 L 189.421875 256.304688 L 189.421875 202.097656 Z M 135.269531 202.097656 " fill-rule="nonzero"/></g></g><g clip-path="url(#5d6a0af65f)"><path fill="url(#57c4b7616e)" d="M 185.75 187.613281 L 185.75 248.691406 L 189.476562 248.691406 L 189.476562 187.613281 Z M 185.75 187.613281 " fill-rule="nonzero"/></g><g clip-path="url(#ecfae37249)"><g clip-path="url(#ce78ff646f)"><path fill="url(#ada9ef21b3)" d="M 170.945312 244.109375 L 170.945312 320.738281 L 204.226562 320.738281 L 204.226562 244.109375 Z M 170.945312 244.109375 " fill-rule="nonzero"/></g></g><g clip-path="url(#a2e9ff2ba7)"><g clip-path="url(#888bbf45da)"><path fill="url(#f47d140697)" d="M 139.742188 238.09375 L 139.742188 298.90625 L 176.429688 298.90625 L 176.429688 238.09375 Z M 139.742188 238.09375 " fill-rule="nonzero"/></g></g><g clip-path="url(#442c17fc93)"><g clip-path="url(#350770a1ff)"><path fill="url(#6dea858e47)" d="M 198.796875 237.988281 L 198.796875 298.90625 L 235.539062 298.90625 L 235.539062 237.988281 Z M 198.796875 237.988281 " fill-rule="nonzero"/></g></g><g clip-path="url(#4adb4fbc50)"><g clip-path="url(#6f29889b3b)"><path fill="url(#af08cff659)" d="M 118.972656 185.75 L 118.972656 239.902344 L 173.183594 239.902344 L 173.183594 185.75 Z M 118.972656 185.75 " fill-rule="nonzero"/></g></g><g clip-path="url(#e2afb20168)"><g clip-path="url(#6854aaf8e5)"><path fill="url(#b8ee6f88ae)" d="M 118.972656 135.269531 L 118.972656 189.421875 L 173.128906 189.421875 L 173.128906 135.269531 Z M 118.972656 135.269531 " fill-rule="nonzero"/></g></g><g clip-path="url(#a887549661)"><path fill="url(#0e2a441fc3)" d="M 126.695312 185.75 L 126.695312 189.476562 L 187.613281 189.476562 L 187.613281 185.75 Z M 126.695312 185.75 " fill-rule="nonzero"/></g><g clip-path="url(#31105cc372)"><g clip-path="url(#cd412a3386)"><path fill="url(#268acb16d4)" d="M 54.488281 171 L 54.488281 204.28125 L 131.113281 204.28125 L 131.113281 171 Z M 54.488281 171 " fill-rule="nonzero"/></g></g><g clip-path="url(#4e0f52ebc1)"><g clip-path="url(#5a9579474f)"><path fill="url(#cd1914d4a7)" d="M 76.320312 139.742188 L 76.320312 176.429688 L 137.132812 176.429688 L 137.132812 139.742188 Z M 76.320312 139.742188 " fill-rule="nonzero"/></g></g><g clip-path="url(#0953d013ed)"><g clip-path="url(#40b1c91d53)"><path fill="url(#1d811b389c)" d="M 76.320312 198.796875 L 76.320312 235.539062 L 137.238281 235.539062 L 137.238281 198.796875 Z M 76.320312 198.796875 " fill-rule="nonzero"/></g></g></svg>